<?xml version="1.0" encoding="UTF-8" standalone="no"?>
<svg
   xmlns:dc="http://purl.org/dc/elements/1.1/"
   xmlns:cc="http://creativecommons.org/ns#"
   xmlns:rdf="http://www.w3.org/1999/02/22-rdf-syntax-ns#"
   xmlns:svg="http://www.w3.org/2000/svg"
   xmlns="http://www.w3.org/2000/svg"
   xmlns:sodipodi="http://sodipodi.sourceforge.net/DTD/sodipodi-0.dtd"
   xmlns:inkscape="http://www.inkscape.org/namespaces/inkscape"
   version="1.1"
   x="0px"
   y="0px"
   viewBox="0 0 2663.9 277.5"
   xml:space="preserve"
   id="svg175"
   sodipodi:docname="NES_Classic_Edition_logo.svg"
   inkscape:version="0.92.2 (5c3e80d, 2017-08-06)"><metadata
     id="metadata181"><rdf:RDF><cc:Work
         rdf:about=""><dc:format>image/svg+xml</dc:format><dc:type
           rdf:resource="http://purl.org/dc/dcmitype/StillImage" /></cc:Work></rdf:RDF></metadata><defs
     id="defs179" /><sodipodi:namedview
     pagecolor="#ffffff"
     bordercolor="#666666"
     borderopacity="1"
     objecttolerance="10"
     gridtolerance="10"
     guidetolerance="10"
     inkscape:pageopacity="0"
     inkscape:pageshadow="2"
     inkscape:window-width="1873"
     inkscape:window-height="1029"
     id="namedview177"
     showgrid="false"
     inkscape:zoom="0.6565562"
     inkscape:cx="1331.95"
     inkscape:cy="138.75"
     inkscape:window-x="47"
     inkscape:window-y="27"
     inkscape:window-maximized="1"
     inkscape:current-layer="svg175" /><style
     type="text/css"
     id="style139">
	.logo{fill:#8D734A;}
</style><path
     class="logo"
     d="M43.1 6.3h85.5l26.8 83.9c3.9 12.6 10.1 29.9 14.4 53.6L192.2 6.3h84.5l-43.1 264.2h-85.5l-43.1-136.3c-0.7 19.2-3.9 39.5-7.5 62.4l-12.1 73.9H0L43.1 6.3z"
     id="path141"
     style="fill:#ffffff" /><polygon
     class="logo"
     points="293.7 6.3 453.6 6.3 442.2 78 366.2 78 361.9 103.5 433.4 103.5 422.6 170.3 351.2 170.3 346.6 198.8 429.5 198.8 417.7 270.5 250.6 270.5 "
     id="polygon143"
     style="fill:#ffffff" /><path
     class="logo"
     d="M463.1 159.6c18.9 26.6 40.8 40.3 61.4 40.3 9.8 0 15.3-4.4 15.3-10.3 0-8.5-8.8-11.1-24.5-18.5 -38.2-18.1-57.1-41-57.1-77.2 0-53.6 37.2-93.5 96.3-93.5 33.3 0 61 11.1 84.2 33.3L606 98.3c-18.6-18.5-33.9-27.7-47-27.7 -8.2 0-13.1 4.8-13.1 11.5 0 10.7 11.4 14 29.7 23.3 33.9 17.4 49.9 37 49.9 74.6 0 53.9-41.1 96.8-100.2 96.8 -36.2 0-72.1-16.3-104.1-48L463.1 159.6z"
     id="path145"
     style="fill:#ffffff" /><path
     class="logo"
     d="M855.7 268.6c-14.4 5.9-28.4 8.9-42.8 8.9 -29 0-55.2-10.7-75.4-30.7 -22.5-22.2-35.6-56.2-35.6-93.1 0-39.2 10.8-73.9 32-102C758.8 18.8 795.3 0 837.8 0c22.2 0 41.8 5.2 59.4 15.2l-14.4 88.3c-16-10.3-31-15.9-46.3-15.9 -29.4 0-50.3 23.6-50.3 56.5 0 28.1 16 45.5 40.8 45.5 13.1 0 29.4-5.5 44.4-16.3L855.7 268.6z"
     id="path147"
     style="fill:#ffffff" /><polygon
     class="logo"
     points="895.7 85.5 956 85.5 935 213.6 985.2 213.6 975.9 270.5 865.5 270.5 "
     id="polygon149"
     style="fill:#ffffff" /><path
     class="logo"
     d="M1080 202.2l-0.7-19.9c-0.2-6.5-0.7-14.7-0.7-24.6 0-3.9 0-8.3 0.2-12.9 -3.4 12.4-6.4 21.5-8.2 26.6l-11.4 30.8H1080zM1055.6 85.5h64.6l21.2 185h-58l-1.1-24.6H1043l-8.9 24.6h-63.7L1055.6 85.5z"
     id="path151"
     style="fill:#ffffff" /><path
     class="logo"
     d="M1159.5 192.9c13.3 18.6 28.6 28.2 42.9 28.2 6.9 0 10.7-3.1 10.7-7.2 0-5.9-6.2-7.8-17.1-12.9 -26.7-12.7-40-28.7-40-54.1 0-37.5 26-65.5 67.4-65.5 23.3 0 42.7 7.8 58.9 23.3l-22.8 45.3c-13-12.9-23.8-19.4-32.9-19.4 -5.7 0-9.1 3.4-9.1 8 0 7.5 8 9.8 20.8 16.3 23.8 12.2 34.9 25.9 34.9 52.3 0 37.8-28.8 67.8-70.1 67.8 -25.4 0-50.5-11.4-72.9-33.6L1159.5 192.9z"
     id="path153"
     style="fill:#ffffff" /><path
     class="logo"
     d="M1290.7 192.9c13.2 18.6 28.6 28.2 42.9 28.2 6.9 0 10.7-3.1 10.7-7.2 0-5.9-6.2-7.8-17.1-12.9 -26.7-12.7-40-28.7-40-54.1 0-37.5 26-65.5 67.4-65.5 23.3 0 42.7 7.8 58.9 23.3l-22.8 45.3c-13-12.9-23.8-19.4-32.9-19.4 -5.7 0-9.1 3.4-9.1 8 0 7.5 8 9.8 20.8 16.3 23.8 12.2 34.9 25.9 34.9 52.3 0 37.8-28.8 67.8-70.1 67.8 -25.4 0-50.5-11.4-72.9-33.6L1290.7 192.9z"
     id="path155"
     style="fill:#ffffff" /><polygon
     class="logo"
     points="1434.1 85.5 1494.2 85.5 1464.1 270.5 1404 270.5 "
     id="polygon157"
     style="fill:#ffffff" /><path
     class="logo"
     d="M1597.9 269.2c-10 4.1-19.9 6.2-29.9 6.2 -20.3 0-38.6-7.5-52.8-21.5 -15.8-15.5-24.9-39.3-24.9-65.2 0-27.4 7.5-51.7 22.4-71.4 17.4-23 42.9-36.2 72.6-36.2 15.5 0 29.2 3.6 41.6 10.6l-10 61.8c-11.2-7.2-21.7-11.1-32.4-11.1 -20.6 0-35.2 16.6-35.2 39.6 0 19.7 11.2 31.8 28.6 31.8 9.1 0 20.6-3.9 31.1-11.4L1597.9 269.2z"
     id="path159"
     style="fill:#ffffff" /><polygon
     class="logo"
     points="1730.4 6.3 1890.3 6.3 1878.9 78 1802.9 78 1798.6 103.5 1870.1 103.5 1859.3 170.3 1787.9 170.3 1783.3 198.8 1866.2 198.8 1854.5 270.5 1687.4 270.5 "
     id="polygon161"
     style="fill:#ffffff" /><path
     class="logo"
     d="M1931.9 214.9c26.7 0 42-16.6 42-42.4 0-19.1-11.2-31.3-29.7-31.3h-1.1l-11.9 73.7H1931.9zM1893.1 85.5h44.1c25.8 0 44.5 2.6 56.9 9.3 25.8 14.5 39.8 40.4 39.8 73.5 0 31-12.3 59.5-34 77.9 -22.4 18.9-49.3 24.3-85.4 24.3H1863L1893.1 85.5z"
     id="path163"
     style="fill:#ffffff" /><polygon
     class="logo"
     points="2058.3 85.5 2118.4 85.5 2088.2 270.5 2028.1 270.5 "
     id="polygon165"
     style="fill:#ffffff" /><polygon
     class="logo"
     points="2152.9 141.7 2117.9 141.7 2127.3 85.5 2255.7 85.5 2246.5 141.7 2212.7 141.7 2191.7 270.5 2131.8 270.5 "
     id="polygon167"
     style="fill:#ffffff" /><polygon
     class="logo"
     points="2265.7 85.5 2325.8 85.5 2295.6 270.5 2235.6 270.5 "
     id="polygon169"
     style="fill:#ffffff" /><path
     class="logo"
     d="M2368.1 181.7c0 19.4 10.5 32.3 27.2 32.3 18.5 0 32.4-18.1 32.4-40.1 0-18.6-11.6-31.3-27.2-31.3C2381.8 142.7 2368.1 159.8 2368.1 181.7M2334.3 253.7c-15.5-15.3-24.9-39.1-24.9-64.9 0-27.7 7.5-51.7 22.4-71.4 17.4-23 43.2-36.2 72.4-36.2 49.8 0 82.5 36 82.5 86.7 0 27.4-7.5 52-22.4 71.4 -17.8 23.5-42.9 36.2-72.6 36.2C2368.1 275.4 2349.1 268.1 2334.3 253.7"
     id="path171"
     style="fill:#ffffff" /><path
     class="logo"
     d="M2500.3 85.5h59.9l18.7 58.7c2.7 8.8 7.1 21 10.1 37.5l15.8-96.2h59.2l-30.2 185h-59.9l-30.2-95.5c-0.5 13.5-2.7 27.7-5.3 43.7l-8.4 51.7h-59.9L2500.3 85.5z"
     id="path173"
     style="fill:#ffffff" /></svg>