<?xml version="1.0" encoding="UTF-8" standalone="no"?>
<!-- Created with Inkscape (http://www.inkscape.org/) -->

<svg
   xmlns:dc="http://purl.org/dc/elements/1.1/"
   xmlns:cc="http://creativecommons.org/ns#"
   xmlns:rdf="http://www.w3.org/1999/02/22-rdf-syntax-ns#"
   xmlns:svg="http://www.w3.org/2000/svg"
   xmlns="http://www.w3.org/2000/svg"
   xmlns:sodipodi="http://sodipodi.sourceforge.net/DTD/sodipodi-0.dtd"
   xmlns:inkscape="http://www.inkscape.org/namespaces/inkscape"
   width="102.44852mm"
   height="33.087383mm"
   viewBox="0 0 102.44852 33.087383"
   version="1.1"
   id="svg78"
   inkscape:version="0.92.2 (5c3e80d, 2017-08-06)"
   sodipodi:docname="test.svg">
  <defs
     id="defs72" />
  <sodipodi:namedview
     id="base"
     pagecolor="#ffffff"
     bordercolor="#666666"
     borderopacity="1.0"
     inkscape:pageopacity="0.0"
     inkscape:pageshadow="2"
     inkscape:zoom="1.1580078"
     inkscape:cx="302.51502"
     inkscape:cy="-126.81133"
     inkscape:document-units="mm"
     inkscape:current-layer="flowRoot80"
     showgrid="false"
     inkscape:window-width="1873"
     inkscape:window-height="1029"
     inkscape:window-x="47"
     inkscape:window-y="27"
     inkscape:window-maximized="1"
     fit-margin-top="0"
     fit-margin-left="0"
     fit-margin-right="0"
     fit-margin-bottom="0" />
  <metadata
     id="metadata75">
    <rdf:RDF>
      <cc:Work
         rdf:about="">
        <dc:format>image/svg+xml</dc:format>
        <dc:type
           rdf:resource="http://purl.org/dc/dcmitype/StillImage" />
        <dc:title></dc:title>
      </cc:Work>
    </rdf:RDF>
  </metadata>
  <g
     inkscape:label="Layer 1"
     inkscape:groupmode="layer"
     id="layer1"
     transform="translate(-0.20297545,0.0595465)">
    <g
       aria-label="SNES HACKS"
       transform="matrix(0.26458333,0,0,0.26458333,-3.6557036,-18.506999)"
       style="font-style:normal;font-variant:normal;font-weight:normal;font-stretch:normal;font-size:40px;line-height:1.25;font-family:'Changa One';-inkscape-font-specification:'Changa One';letter-spacing:0px;word-spacing:0px;fill:#000000;fill-opacity:1;stroke:none"
       id="flowRoot80">
      <g
         aria-label="HACKS"
         style="font-style:normal;font-variant:normal;font-weight:normal;font-stretch:normal;font-size:96px;line-height:1.25;font-family:'Changa One';-inkscape-font-specification:'Changa One';letter-spacing:0px;word-spacing:0px;fill:#000000;fill-opacity:1;stroke:none"
         id="text112" />
      <g
         aria-label="SNES"
         style="font-style:normal;font-variant:normal;font-weight:normal;font-stretch:normal;font-size:40px;line-height:1.25;font-family:'Changa One';-inkscape-font-specification:'Changa One';letter-spacing:0px;word-spacing:0px;fill:#000000;fill-opacity:1;stroke:none"
         id="text116">
        <path
           style="font-size:96px;fill:#ffffff"
           d="m 48.279297,69.722656 c -8.128,0 -14.142875,1.535422 -18.046875,4.607422 -3.84,3.072 -6.49675,8.704484 -7.96875,16.896484 -0.384,2.112001 -0.576172,4.031766 -0.576172,5.759766 0,3.968002 1.248141,7.038842 3.744141,9.214842 2.56,2.176 6.880937,3.55291 12.960937,4.12891 l 7.966797,0.76758 -0.767578,4.80078 c -2.752,0.384 -6.367656,0.57617 -10.847656,0.57617 -4.48,0 -9.409157,-0.73699 -14.785157,-2.20899 l -5.375,15.83985 c 6.464,1.664 13.66361,2.49609 21.59961,2.49609 4.352,0 8.033015,-0.22387 11.041015,-0.67187 2.048,-0.256 3.743891,-0.64035 5.087891,-1.15235 1.344,-0.576 2.816016,-1.37443 4.416016,-2.39843 1.664,-1.088 3.00725,-2.3698 4.03125,-3.8418 1.088,-1.536 2.080562,-3.42406 2.976562,-5.66406 1.792,-4.352 2.6875,-8.57588 2.6875,-12.67188 0,-4.032 -1.374953,-7.231606 -4.126953,-9.599608 -2.752,-2.432 -7.393875,-3.999124 -13.921875,-4.703124 l -6.431641,-0.671876 0.769532,-4.705078 c 2.368,-0.32 5.246671,-0.480468 8.638671,-0.480468 3.392,0 7.871454,0.481406 13.439454,1.441406 l 4.992187,-15.361328 c -6.208,-1.6 -13.375906,-2.398438 -21.503906,-2.398438 z m 168.750003,0 c -8.128,0 -14.14288,1.535422 -18.04688,4.607422 -3.84,3.072 -6.49675,8.704484 -7.96875,16.896484 -0.384,2.112001 -0.57617,4.031766 -0.57617,5.759766 0,3.968002 1.24814,7.038842 3.74414,9.214842 2.56,2.176 6.88094,3.55291 12.96094,4.12891 l 7.9668,0.76758 -0.76758,4.80078 c -2.752,0.384 -6.36766,0.57617 -10.84766,0.57617 -4.48,0 -9.40916,-0.73699 -14.78516,-2.20899 l -5.375,15.83985 c 6.464,1.664 13.66361,2.49609 21.59961,2.49609 4.352,0 8.03302,-0.22387 11.04102,-0.67187 2.048,-0.256 3.74389,-0.64035 5.08789,-1.15235 1.344,-0.576 2.81602,-1.37443 4.41602,-2.39843 1.664,-1.088 3.00725,-2.3698 4.03125,-3.8418 1.088,-1.536 2.08056,-3.42406 2.97656,-5.66406 1.792,-4.352 2.6875,-8.57588 2.6875,-12.67188 0,-4.032 -1.37495,-7.231606 -4.12695,-9.599608 -2.752,-2.432 -7.39388,-3.999124 -13.92188,-4.703124 l -6.43164,-0.671876 0.76953,-4.705078 c 2.368,-0.32 5.24667,-0.480468 8.63867,-0.480468 3.392,0 7.87146,0.481406 13.43946,1.441406 l 4.99218,-15.361328 c -6.208,-1.6 -13.3759,-2.398438 -21.5039,-2.398438 z M 81.996094,71.162109 71.4375,131.16211 h 18.240234 l 4.511719,-25.91992 h 0.767578 c -0.128,1.024 -0.191406,1.9512 -0.191406,2.7832 0,0.768 0.126812,1.37622 0.382813,1.82422 l 9.792972,21.3125 H 122.125 l 10.56055,-60.000001 h -18.24024 l -4.60742,25.919922 h -0.76953 c 0.128,-1.024 0.19336,-1.9195 0.19336,-2.6875 0,-0.832 -0.0971,-1.471922 -0.28906,-1.919922 l -9.791019,-21.3125 z m 62.812496,0 L 134.25,131.16211 h 40.60742 l 2.6875,-15.35938 h -22.36719 l 1.24805,-7.29687 h 18.24024 l 2.49609,-13.919922 h -18.24023 l 1.34374,-8.064454 h 19.67969 l 4.99219,-15.359375 z m 135.61719,60.736331 c -10.176,0 -17.63314,2.49433 -22.36914,7.48633 -4.672,4.992 -7.96672,12.992 -9.88672,24 -0.896,5.376 -1.34375,9.44135 -1.34375,12.19335 0,6.528 1.7276,11.3601 5.1836,14.4961 3.52,3.136 9.311,4.70312 17.375,4.70312 6.272,0 11.45673,-0.83209 15.55273,-2.49609 l 1.53516,-16.12695 c -4.288,1.536 -9.02303,2.30273 -14.20704,2.30273 -2.43199,0 -4.79951,-0.25558 -7.10351,-0.76758 l 4.41601,-25.15234 c 0.32,-1.92 1.1838,-3.19984 2.5918,-3.83984 1.408,-0.64 3.74381,-0.95899 7.00781,-0.95899 3.328,0 6.88025,0.44775 10.65625,1.34375 l 5.375,-14.6875 c -1.408,-0.704 -3.64675,-1.28051 -6.71875,-1.72851 -3.008,-0.512 -5.69645,-0.76758 -8.06445,-0.76758 z m 99.86133,0 c -8.128,0 -14.14483,1.53542 -18.04883,4.60742 -3.84,3.072 -6.49675,8.70448 -7.96875,16.89648 -0.384,2.112 -0.57422,4.03177 -0.57422,5.75977 0,3.968 1.24619,7.03884 3.74219,9.21484 2.56,2.176 6.88094,3.55291 12.96094,4.12891 l 7.96875,0.76758 -0.76953,4.80078 c -2.752,0.384 -6.36766,0.57617 -10.84766,0.57617 -4.48,0 -9.4072,-0.73698 -14.7832,-2.20898 l -5.37696,15.83984 c 6.464,1.664 13.66557,2.49609 21.60157,2.49609 4.352,0 8.03106,-0.22387 11.03906,-0.67187 2.048,-0.256 3.74389,-0.64034 5.08789,-1.15235 1.344,-0.57599 2.81601,-1.37639 4.41602,-2.40039 1.66399,-1.088 3.00724,-2.36784 4.03124,-3.83984 1.08801,-1.536 2.08057,-3.42406 2.97657,-5.66406 1.792,-4.352 2.6875,-8.57588 2.6875,-12.67188 0,-4.032 -1.37496,-7.23161 -4.12696,-9.59961 -2.752,-2.432 -7.39192,-3.99912 -13.91992,-4.70312 l -6.43164,-0.67188 0.76758,-4.70507 c 2.368,-0.32 5.24862,-0.48047 8.64063,-0.48047 3.39199,0 7.87145,0.4814 13.43945,1.4414 l 4.99219,-15.36132 c -6.208,-1.60001 -13.37591,-2.39844 -21.50391,-2.39844 z m -245.4707,1.43945 -10.56055,60 h 18.24023 l 3.64844,-21.2168 h 13.72656 l -3.64648,21.2168 h 18.24023 l 10.5586,-60 H 166.7832 l -3.74414,21.21484 H 149.3125 l 3.74414,-21.21484 z m 71.55664,0 -25.24805,60 h 19.20117 l 3.74414,-9.50391 h 15.07031 l 0.38477,9.50391 h 19.29688 l -4.22461,-60 z m 97.38086,0 -10.56055,60 h 18.24023 l 4.51172,-26.11133 h 0.76758 l -0.0957,1.82227 c 0,1.216 0.0971,2.14515 0.28906,2.78515 l 5.2793,21.50391 h 19.67968 l -8.73632,-30.52734 18.8164,-29.47266 h -19.67969 l -12.0957,19.87109 c -0.64,1.024 -1.21651,2.56138 -1.72851,4.60938 h -0.76758 l 4.32031,-24.48047 z m -87.01172,18.43164 h 0.95898 v 16.80078 h -7.67969 z"
           id="path124"
           inkscape:connector-curvature="0" />
      </g>
    </g>
  </g>
</svg>
