<?xml version="1.0" encoding="UTF-8" standalone="no"?>
<!-- Created with Inkscape (http://www.inkscape.org/) -->

<svg
   xmlns:dc="http://purl.org/dc/elements/1.1/"
   xmlns:cc="http://creativecommons.org/ns#"
   xmlns:rdf="http://www.w3.org/1999/02/22-rdf-syntax-ns#"
   xmlns:svg="http://www.w3.org/2000/svg"
   xmlns="http://www.w3.org/2000/svg"
   xmlns:sodipodi="http://sodipodi.sourceforge.net/DTD/sodipodi-0.dtd"
   xmlns:inkscape="http://www.inkscape.org/namespaces/inkscape"
   width="166.4232mm"
   height="34.458557mm"
   viewBox="0 0 166.4232 34.458557"
   version="1.1"
   id="svg8"
   inkscape:version="0.92.2 (5c3e80d, 2017-08-06)"
   sodipodi:docname="genh.svg">
  <defs
     id="defs2" />
  <sodipodi:namedview
     id="base"
     pagecolor="#ffffff"
     bordercolor="#666666"
     borderopacity="1.0"
     inkscape:pageopacity="0.0"
     inkscape:pageshadow="2"
     inkscape:zoom="1.1580078"
     inkscape:cx="303.37862"
     inkscape:cy="350.31264"
     inkscape:document-units="mm"
     inkscape:current-layer="layer1"
     showgrid="false"
     fit-margin-top="0"
     fit-margin-left="0"
     fit-margin-right="0"
     fit-margin-bottom="0"
     inkscape:window-width="1873"
     inkscape:window-height="1029"
     inkscape:window-x="47"
     inkscape:window-y="27"
     inkscape:window-maximized="1" />
  <metadata
     id="metadata5">
    <rdf:RDF>
      <cc:Work
         rdf:about="">
        <dc:format>image/svg+xml</dc:format>
        <dc:type
           rdf:resource="http://purl.org/dc/dcmitype/StillImage" />
        <dc:title></dc:title>
      </cc:Work>
    </rdf:RDF>
  </metadata>
  <g
     inkscape:label="Layer 1"
     inkscape:groupmode="layer"
     id="layer1"
     transform="translate(0.02551812,0.05973358)">
    <g
       aria-label="MEGADRIVE"
       style="font-style:normal;font-variant:normal;font-weight:normal;font-stretch:normal;font-size:25.39999962px;line-height:1.25;font-family:'Changa One';-inkscape-font-specification:'Changa One';letter-spacing:0px;word-spacing:0px;fill:#000000;fill-opacity:1;stroke:none;stroke-width:0.26458332"
       id="text12" />
    <g
       aria-label="HACKS"
       style="font-style:normal;font-variant:normal;font-weight:normal;font-stretch:normal;font-size:10.58333302px;line-height:1.25;font-family:'Changa One';-inkscape-font-specification:'Changa One';letter-spacing:0px;word-spacing:0px;fill:#000000;fill-opacity:1;stroke:none;stroke-width:0.26458332"
       id="text16">
      <path
         id="path26"
         style="font-size:25.39999962px;stroke-width:0.26458332;fill:#ffffff"
         d="m 151.79268,33.738422 1.4224,-4.191 q 2.1336,0.5842 3.9116,0.5842 1.778,0 2.8702,-0.1524 l 0.2032,-1.27 -2.1082,-0.2032 q -2.413,-0.2286 -3.429,-1.0922 -0.9906,-0.8636 -0.9906,-2.4384 0,-0.6858 0.1524,-1.524 0.5842,-3.2512 2.1082,-4.4704 1.5494,-1.219199 4.7752,-1.219199 3.2258,0 5.6896,0.635 l -1.3208,4.063999 q -2.2098,-0.381 -3.556,-0.381 -1.3462,0 -2.286,0.127 l -0.2032,1.2446 1.7018,0.1778 q 2.5908,0.2794 3.683,1.2446 1.0922,0.9398 1.0922,2.54 0,1.6256 -0.7112,3.3528 -0.3556,0.889 -0.7874,1.4986 -0.4064,0.5842 -1.0668,1.016 -0.635,0.4064 -1.1684,0.635 -0.5334,0.2032 -1.3462,0.3048 -1.1938,0.1778 -2.921,0.1778 -3.1496,0 -5.715,-0.6604 z m -7.93036,-6.1468 0.0254,-0.4826 h -0.2032 l -1.1938,6.9088 h -4.826 l 2.794,-15.874999 h 4.826 l -1.143,6.476999 h 0.2032 q 0.2032,-0.8128 0.4572,-1.2192 l 3.2004,-5.257799 h 5.207 l -4.9784,7.797799 2.3114,8.0772 h -5.207 l -1.397,-5.6896 q -0.0762,-0.254 -0.0762,-0.7366 z m -7.9756,1.8796 -0.4064,4.2672 q -1.6256,0.6604 -4.1148,0.6604 -3.2004,0 -4.5974,-1.2446 -1.3716,-1.2446 -1.3716,-3.8354 0,-1.0922 0.3556,-3.2258 0.762,-4.3688 2.6162,-6.35 1.8796,-1.981199 5.9182,-1.981199 0.9398,0 2.1336,0.2032 1.2192,0.1778 1.778,0.457199 l -1.4224,3.8862 q -1.4986,-0.3556 -2.8194,-0.3556 -1.2954,0 -1.8542,0.254 -0.5588,0.254 -0.6858,1.016 l -1.1684,6.6548 q 0.9144,0.2032 1.8796,0.2032 2.0574,0 3.7592,-0.6096 z m -22.79332,4.5466 h -5.08 l 6.6802,-15.874999 h 7.4676 l 1.1176,15.874999 h -5.1054 l -0.1016,-2.5146 h -3.9878 z m 4.3434,-10.9982 -1.778,4.445 h 2.032 v -4.445 z m -16.01193,10.9982 0.9652,-5.6134 h -3.632197 l -0.9652,5.6134 h -4.825999 l 2.793999,-15.874999 h 4.825997 l -0.990597,5.613399 h 3.632197 l 0.9906,-5.613399 h 4.826 l -2.794,15.874999 z m 28.11779,-23.815956 h -4.826 l -0.3302,1.9304 h 5.9182 l -0.7112,4.064 h -10.7442 l 2.794,-15.87499959 h 10.6172 l -1.3208,4.06399999 h -5.207 l -0.3556,2.1335999 h 4.826 z m -14.7328,-9.88059959 h 5.1054 l -6.5278,15.87499959 h -7.0612 l -0.9398,-15.87499959 h 5.3594 V 10.405066 h 0.2286 z M 96.222622,16.196266 l 2.794,-15.87499959 h 4.825998 l -2.794,15.87499959 z m -1.869679,0 h -5.3086 l -1.1684,-4.7244 h -1.0414 l -0.8128,4.7244 h -4.826 l 2.794,-15.87499959 h 7.62 q 4.3434,0 4.3434,3.88619999 0,1.6001999 -0.4826,3.0479999 -0.889,2.7432 -2.794,3.6575997 z m -6.2738,-11.8109996 -0.5588,3.1749999 h 1.1176 q 0.8636,0 1.2954,-0.1778 0.4572,-0.2032 0.6096,-1.0922 0.1778,-0.9144 0.1778,-1.1176 0,-0.508 -0.4064,-0.635 -0.381,-0.1523999 -1.27,-0.1523999 z m -23.254494,11.8109996 2.794,-15.87499959 h 6.7564 q 3.2766,0 4.6482,1.16839999 1.397,1.143 1.397,3.7337999 0,1.3208 -0.3048,3.048 -0.762,4.2671997 -2.6162,6.0959997 -1.8288,1.8288 -5.9182,1.8288 z m 8.89,-11.8109996 h -2.0066 l -1.3462,7.7469996 h 2.0066 q 0.9906,0 1.4732,-0.2286 0.4826,-0.254 0.635,-1.1176 l 0.889,-5.0545997 q 0.0254,-0.1524 0.0254,-0.4064 0,-0.5842 -0.4064,-0.762 -0.4064,-0.1777999 -1.27,-0.1777999 z M 52.953326,16.196266 h -5.08 l 6.6802,-15.87499959 h 7.4676 l 1.1176,15.87499959 h -5.1054 l -0.1016,-2.5146 h -3.9878 z m 4.3434,-10.9981997 -1.778,4.445 h 2.032 v -4.445 z m -14.197012,6.3245997 0.127,-0.6858 h -1.2192 l 0.6858,-3.8861997 h 5.8166 l -1.4986,8.4835997 q -3.0988,1.143 -6.223,1.143 -3.1242,0 -4.5212,-1.2446 -1.3716,-1.2446 -1.3716,-3.8354 0,-1.0922 0.3556,-3.2257997 0.762,-4.4195999 2.6924,-6.3753999 1.9304,-1.95579998 6.4008,-1.95579998 0.9398,0 2.3876,0.2032 1.4732,0.20319999 2.159,0.45719999 l -1.397,3.88619999 q -1.905,-0.3556 -3.5052,-0.3556 -1.5748,0 -2.2606,0.254 -0.6858,0.2539999 -0.8128,1.0159999 l -1.2446,7.1881997 h 1.6002 q 0.8636,0 1.27,-0.1778 0.4318,-0.2032 0.5588,-0.889 z m -11.386742,-1.3208 h -4.826 l -0.3302,1.9304 h 5.9182 l -0.7112,4.064 h -10.7442 l 2.794,-15.87499959 h 10.6172 l -1.3208,4.06399999 h -5.207 l -0.3556,2.1335999 h 4.826 z m -26.7092902,5.9944 H -0.02551812 L 3.6828818,0.32126641 H 9.9820817 L 10.439282,8.3984663 h 0.1778 l 3.302,-8.07719989 h 6.2992 l -1.8796,15.87499959 h -5.0546 l 1.0668,-7.6961997 h -0.1778 l -3.175,7.6961997 H 7.3150818 l -0.5334,-7.6961997 h -0.127 z"
         inkscape:connector-curvature="0" />
    </g>
  </g>
</svg>
