<?xml version="1.0" encoding="UTF-8" standalone="no"?>
<!-- Created with Inkscape (http://www.inkscape.org/) -->

<svg
   xmlns:dc="http://purl.org/dc/elements/1.1/"
   xmlns:cc="http://creativecommons.org/ns#"
   xmlns:rdf="http://www.w3.org/1999/02/22-rdf-syntax-ns#"
   xmlns:svg="http://www.w3.org/2000/svg"
   xmlns="http://www.w3.org/2000/svg"
   xmlns:xlink="http://www.w3.org/1999/xlink"
   xmlns:sodipodi="http://sodipodi.sourceforge.net/DTD/sodipodi-0.dtd"
   xmlns:inkscape="http://www.inkscape.org/namespaces/inkscape"
   version="1.1"
   id="svg347"
   sodipodi:docname="tmnt.svg"
   inkscape:version="0.92.2 (5c3e80d, 2017-08-06)">
  <defs
     id="defs341">
    <clipPath
       clipPathUnits="userSpaceOnUse"
       id="clipPath382">
      <use
         x="0"
         y="0"
         xlink:href="#g378"
         id="use384"
         width="100%"
         height="100%" />
    </clipPath>
  </defs>
  <sodipodi:namedview
     id="base"
     pagecolor="#ffffff"
     bordercolor="#666666"
     borderopacity="1.0"
     inkscape:pageopacity="0.0"
     inkscape:pageshadow="2"
     inkscape:zoom="0.35"
     inkscape:cx="400"
     inkscape:cy="788.57143"
     inkscape:document-units="mm"
     inkscape:current-layer="layer1"
     showgrid="false"
     inkscape:window-width="1873"
     inkscape:window-height="1029"
     inkscape:window-x="47"
     inkscape:window-y="27"
     inkscape:window-maximized="1" />
  <metadata
     id="metadata344">
    <rdf:RDF>
      <cc:Work
         rdf:about="">
        <dc:format>image/svg+xml</dc:format>
        <dc:type
           rdf:resource="http://purl.org/dc/dcmitype/StillImage" />
      </cc:Work>
    </rdf:RDF>
  </metadata>
  <g
     inkscape:label="Layer 1"
     inkscape:groupmode="layer"
     id="layer1">
    <g
       id="g380"
       clip-path="url(#clipPath382)">
      <g
         inkscape:label="Clip"
         id="g378">
        <path
           inkscape:connector-curvature="0"
           id="path183"
           style="fill:#ffffff;fill-opacity:1;fill-rule:nonzero;stroke:none;stroke-width:0.12372552"
           d="m 195.05258,58.518118 c -0.1238,-0.06815 -0.18451,0.366482 -0.18451,1.298764 -0.24643,-0.666101 -0.98688,-1.099445 -2.22138,-1.298764 0.37142,0 0.77379,-0.05015 1.20354,-0.149161 0.42975,-0.09902 0.83213,-0.04887 1.20235,0.149161 z M 178.95773,13.856142 c 0.18333,0 0.38452,0 0.59999,0 0.21547,0 0.44879,0 0.69522,0 0.12381,-0.334334 0.24643,-0.666096 0.37142,-1.000431 0.12142,-0.331763 0.27737,-0.698246 0.4607,-1.098163 0.24643,-0.533648 0.55356,-1.265327 0.92855,-2.1988946 -0.24761,0.335621 -0.77379,1.0673026 -1.57497,2.1988946 -0.61902,0.933565 -1.11307,1.634381 -1.48091,2.098594 z m -3.32968,43.763133 0.27976,-0.102875 c -0.92856,-0.795973 -1.48212,-1.462068 -1.66663,-1.995719 l -0.18572,0.300903 c 0.42976,0.266181 0.95594,0.867983 1.57259,1.797691 z m -1.75591,-39.468219 c 0.73689,-0.997861 1.45948,-2.027867 2.17256,-3.095167 0.70951,-1.066014 1.43211,-2.098594 2.17257,-3.099028 0.74046,-0.999143 1.4952,-2.0124366 2.2678,-3.0462996 0.76903,-1.032582 1.52497,-2.049731 2.26542,-3.047592 0.36905,0 0.80118,0 1.29402,0 0.49404,0 0.95593,0 1.38925,0 -0.3726,0.997861 -0.75712,2.01501 -1.15591,3.047592 -0.40238,1.033863 -0.7869,2.0471566 -1.15831,3.0462996 -0.36905,1.000434 -0.77142,2.033014 -1.20117,3.099028 -0.43213,1.0673 -0.83331,2.097306 -1.20354,3.095167 -0.37023,0 -0.74046,0 -1.11069,0 -0.37022,0 -0.74165,0 -1.1083,0 0.12142,-0.331762 0.30714,-0.76511 0.55355,-1.298762 -0.36904,0 -0.74045,0 -1.10949,0 -0.37142,0 -0.74165,0 -1.1095,0 -0.36904,0.533652 -0.6476,0.967 -0.83093,1.298762 -0.37142,0 -0.72737,0 -1.06665,0 -0.33808,0 -0.69403,0 -1.06068,0 z m 11.09973,19.683315 c -0.18571,-0.531076 -0.26428,-1.094302 -0.23214,-1.696102 0.0286,-0.601808 -0.14166,-1.100735 -0.50832,-1.500652 -0.31071,-0.267466 -1.04878,-0.232749 -2.2178,0.09901 -1.85234,0.79983 -3.3023,1.83627 -4.3499,3.100313 -1.05116,1.265327 -1.85114,2.664392 -2.40589,4.195899 -0.37023,0.997864 -0.37023,1.747546 0,2.247758 0.36665,0.498933 0.73807,0.780546 1.11069,0.848699 -1.48092,1.265328 -1.69878,2.632245 -0.6488,4.096886 0.61784,0.867983 1.17141,1.850414 1.66544,2.948576 0.49403,1.09816 1.20354,1.847843 2.12734,2.247759 0.80116,0.533648 1.41663,0.44878 1.85114,-0.252037 0.42975,-0.698246 0.74045,-1.343769 0.92378,-1.946858 0.125,0.603089 0.20119,1.201034 0.23214,1.798979 0.0298,0.601802 0.23094,1.10202 0.59999,1.498076 0.74046,0.93228 1.58805,1.698677 2.54399,2.296621 0.95593,0.601805 1.86542,1.269189 2.72968,1.99958 0.98689,0.999146 2.01781,1.931427 3.09875,2.798126 1.07854,0.86798 1.98804,1.865845 2.7285,2.997437 0.49404,0.799835 0.3988,1.580375 -0.27856,2.346775 -0.67618,0.7664 -1.26307,1.517366 -1.75591,2.247766 0.36904,-0.46293 0.4607,-0.86413 0.27737,-1.19847 -0.18571,-0.331764 -0.18571,-0.798543 0,-1.39778 -0.30952,-0.19931 -0.52499,0.01671 -0.64879,0.649381 -0.12381,0.632666 -0.37023,0.949009 -0.74046,0.949009 -2.03447,0 -4.44037,-0.464217 -7.21411,-1.397786 -1.41664,-0.399914 -2.2821,-1.417062 -2.58804,-3.047592 -0.31071,-1.631806 -0.80355,-2.583376 -1.48211,-2.850844 -1.35711,-0.46421 -2.71541,-0.0643 -4.07014,1.20103 -1.35712,1.264046 -2.49637,2.498511 -3.42135,3.695692 -0.37022,0.533649 -0.46189,1.219032 -0.27857,2.048441 0.18334,0.835839 0.49404,1.451789 0.92737,1.849129 0.24286,0.4012 0.61427,0.44878 1.1083,0.14788 0.49285,-0.29704 0.95594,-0.51307 1.38926,-0.64809 -0.31071,0.46678 -0.74403,0.94899 -1.29758,1.44792 -0.55714,0.50279 -0.64881,0.91813 -0.275,1.2499 1.35353,1.40292 2.89517,2.66696 4.6237,3.79984 1.72614,1.1316 3.5142,1.72954 5.36416,1.7977 0.98807,0.0681 1.75709,-0.49894 2.31423,-1.69997 0.55474,-1.19589 1.20116,-2.1976 1.94043,-2.99873 0.37023,0.80113 0.67855,1.86714 0.92498,3.20062 0.24642,1.33476 0.76902,1.96357 1.57257,1.89413 2.15829,-0.12987 4.34633,-0.84612 6.5677,-2.14488 2.219,-1.30005 3.88444,-3.01416 4.99513,-5.14747 1.41782,-2.663108 1.91186,-5.444519 1.47972,-8.34037 -0.43332,-2.895857 -1.38806,-5.147469 -2.8666,-6.747137 -0.31071,-0.33176 -0.77141,-0.446207 -1.38925,-0.348475 -0.61665,0.100299 -1.20354,0.150447 -1.75591,0.150447 0.18333,-0.399916 0.47619,-0.864123 0.87736,-1.399062 0.40238,-0.532363 0.41546,-0.964428 0.0488,-1.298761 -1.66544,-1.399062 -3.60825,-2.398208 -5.83082,-2.998725 -2.22137,-0.597945 -4.12966,-1.696108 -5.73082,-3.29577 -0.43332,-0.399917 -0.46546,-1.081445 -0.0952,-2.048443 0.37023,-0.964428 0.83212,-1.480074 1.38926,-1.548227 1.47853,-0.06687 2.98921,0.597944 4.52964,1.997006 1.54045,1.401638 2.89994,1.599664 4.07253,0.597945 0.73927,-0.663526 1.67734,-1.764256 2.82017,-3.295767 1.14283,-1.532798 1.49401,-2.696539 1.06426,-3.497656 -1.17021,-1.995722 -3.02255,-3.28034 -5.55106,-3.844849 -2.5297,-0.563227 -4.90345,-0.982431 -7.12244,-1.248613 -0.73927,0 -1.32617,0.433347 -1.75592,1.298764 -0.43332,0.867981 -0.8964,1.564942 -1.38687,2.096018 z m -14.98655,-24.97866 c 0.30714,0 0.63094,0 0.97021,0 0.33929,0 0.69523,0 1.06426,0 l -0.0917,0.200598 c -0.49285,1.201033 -0.70832,1.733399 -0.64523,1.597092 0,0.33562 0.0607,0.498932 0.18333,0.498932 0.30714,0 0.58451,-0.129877 0.83212,-0.396059 0.36786,-0.599231 0.73809,-1.300049 1.1107,-2.099882 0.24761,-0.533648 0.5095,-1.081441 0.78688,-1.648526 0.27619,-0.564511 0.56903,-1.1483096 0.87736,-1.7488266 0.2488,-0.533652 0.5238,-1.08273 0.83451,-1.647242 0.30713,-0.563224 0.61308,-1.147026 0.92259,-1.748828 0.30833,0 0.64641,0 1.01784,0 0.36903,0 0.74045,0 1.10949,0 -0.55713,0.997861 -1.07855,2.03044 -1.57258,3.097739 -0.74046,1.4646436 -1.29402,2.5306586 -1.66544,3.1967566 -0.92378,1.798976 -1.48092,2.796837 -1.66425,2.994868 -0.18332,0.33562 -0.37023,0.636521 -0.55475,0.902703 -0.1857,0.266181 -0.34165,0.498929 -0.4607,0.698246 -0.55712,0.600516 -1.05116,1.032577 -1.4821,1.298761 -0.74046,0.266182 -1.26545,0.399914 -1.57259,0.399914 -0.98806,0 -1.47853,-0.365196 -1.47853,-1.100731 0,-0.464212 0.0917,-0.995289 0.27499,-1.597091 0,-0.132449 0.30713,-0.898849 0.92737,-2.29791 0,-0.06687 0.0286,-0.151737 0.0917,-0.250749 0.0607,-0.09902 0.12142,-0.213463 0.18451,-0.349765 z m -10.36046,5.295345 c 0.37023,-0.997861 0.7726,-2.027867 1.20354,-3.095167 0.42975,-1.066014 0.86308,-2.098594 1.29521,-3.099028 0.36903,-0.999143 0.7714,-2.0124366 1.20116,-3.0462996 0.43213,-1.032582 0.86426,-2.049731 1.2952,-3.047592 0.37143,0 0.77261,0 1.20236,0 0.43094,0 0.8964,0 1.39044,0 -0.12619,0.601802 -0.21904,1.199749 -0.27857,1.798979 -0.0631,0.601802 -0.1238,1.165026 -0.18451,1.694817 -0.12619,0.603092 -0.23571,1.2010366 -0.32738,1.7989806 -0.0917,0.601802 -0.16904,1.199747 -0.22856,1.801549 0.74045,-1.599663 1.26306,-2.79941 1.57258,-3.6005296 0.24642,-0.596657 0.49404,-1.180456 0.74046,-1.744968 0.24761,-0.563224 0.5226,-1.147026 0.83212,-1.748828 0.30714,0 0.64641,0 1.01665,0 0.37022,0 0.74045,0 1.11068,0 -0.49404,0.997861 -0.98807,2.01501 -1.48092,3.047592 -0.49403,1.033863 -0.95593,2.0471566 -1.38687,3.0462996 -0.49403,1.000434 -0.97259,2.033014 -1.43449,3.099028 -0.46308,1.0673 -0.91069,2.097306 -1.34163,3.095167 -0.37023,0 -0.73927,0 -1.11069,0 -0.37022,0 -0.74046,0 -1.10712,0 0,-0.597944 0.0607,-1.197175 0.18214,-1.798977 0.125,-0.597944 0.21666,-1.195889 0.27856,-1.797694 0.0607,-0.79983 0.21548,-1.997004 0.46309,-3.596667 -0.74165,1.599663 -1.26545,2.796837 -1.57257,3.596667 -0.24763,0.601805 -0.5119,1.19975 -0.7869,1.797694 -0.27856,0.601802 -0.50832,1.201033 -0.69165,1.798977 -0.3738,0 -0.71188,0 -1.01902,0 -0.3107,0 -0.5857,0 -0.83331,0 z m -4.1618,0 c 0.37022,-0.997861 0.75593,-2.027867 1.15711,-3.095167 0.39879,-1.066014 0.78331,-2.098594 1.15592,-3.099028 0.36904,-0.999143 0.75355,-2.0124366 1.15474,-3.0462996 0.40237,-1.032582 0.81783,-2.049731 1.25234,-3.047592 0.30714,0 0.64523,0 1.01546,0 0.36785,0 0.73689,0 1.11068,0 -0.92735,2.133315 -1.72733,4.1650386 -2.40588,6.0938916 -0.98808,2.330057 -1.79163,4.395218 -2.40471,6.194195 -0.37143,0 -0.72736,0 -1.06545,0 -0.33809,0 -0.6619,0 -0.97021,0 z m -0.74047,26.277428 c -0.80355,1.599663 -1.05116,3.048873 -0.74046,4.347634 0.30952,1.298764 0.67975,2.513943 1.11069,3.645536 0.18452,0.603087 -0.13809,1.166316 -0.96902,1.70125 -0.83332,0.532363 -1.46901,1.031296 -1.89877,1.496791 0.74046,-0.930995 1.28092,-1.963574 1.61901,-3.099025 0.33928,-1.13031 0.0143,-2.52937 -0.97021,-4.193329 -0.37024,-0.533648 -0.23214,-1.148313 0.41665,-1.849129 0.64642,-0.700817 1.1226,-1.382345 1.43211,-2.049728 z m -7.58315,-26.277428 c 0.30594,-0.997861 0.61307,-2.027867 0.92378,-3.095167 0.30714,-1.066014 0.64523,-2.098594 1.01903,-3.099028 0.30714,-0.999143 0.61427,-2.0124366 0.92379,-3.0462996 0.30832,-1.032582 0.64641,-2.049731 1.01545,-3.047592 0.37142,0 0.77379,0 1.20354,0 0.42976,0 0.86426,0 1.29521,0 0,0.601802 -0.0178,1.199749 -0.0464,1.798979 -0.0309,0.601802 -0.0452,1.165026 -0.0452,1.694817 -0.12499,1.6009526 -0.18332,2.8006996 -0.18332,3.6005296 0.18332,-0.601802 0.38093,-1.199747 0.59879,-1.801549 0.21547,-0.597944 0.41666,-1.1958886 0.60237,-1.7989806 0.18451,-0.529791 0.38213,-1.093015 0.59998,-1.694817 0.21547,-0.59923 0.4488,-1.197177 0.69522,-1.798979 0.30713,0 0.63213,0 0.97022,0 0.33927,0 0.69165,0 1.06425,0 -0.3726,0.997861 -0.74283,2.01501 -1.1095,3.047592 -0.37022,1.033863 -0.74045,2.0471566 -1.11187,3.0462996 -0.37023,1.000434 -0.74046,2.033014 -1.11069,3.099028 -0.37022,1.0673 -0.74046,2.097306 -1.10712,3.095167 -0.37141,0 -0.74164,0 -1.11188,0 -0.36903,0 -0.74045,0 -1.1083,0 0.12143,-1.597091 0.18452,-2.796838 0.18452,-3.596671 0,-0.597944 0.0131,-1.197174 0.0464,-1.798975 0.0274,-0.597945 0.0452,-1.19589 0.0452,-1.797692 -0.18333,0.601802 -0.38452,1.199747 -0.59999,1.797692 -0.21904,0.601801 -0.42023,1.201031 -0.60355,1.798975 -0.18333,0.601805 -0.38333,1.19975 -0.5988,1.797694 -0.21785,0.601802 -0.41903,1.201033 -0.60356,1.798977 -0.30952,0 -0.61665,0 -0.92379,0 -0.31071,0 -0.61784,0 -0.92378,0 z m 3.23683,14.687582 c 0.55475,2.998729 0.47737,5.681121 -0.23214,8.043324 -0.70951,2.366063 -0.9107,4.38107 -0.59999,6.046314 0,0.399917 0.0917,0.75097 0.27619,1.048012 0.18332,0.299617 0.33808,0.650668 0.46427,1.048012 -0.92616,-0.129877 -1.3595,-0.29833 -1.29759,-0.498931 -1.97495,4.330922 -3.48325,8.628411 -4.52845,12.888603 -0.24762,0.735539 -0.004,0.967003 0.73688,0.700817 1.10831,-0.597944 2.55707,-1.096871 4.3487,-1.500646 -0.55713,0.403775 -1.27973,0.918135 -2.17494,1.549508 -0.89641,0.633953 -1.00355,0.950283 -0.32143,0.950283 9.55811,0.533649 16.34009,2.432934 20.34832,5.695265 0.30595,0.266183 0.69047,0.217313 1.15593,-0.149162 0.46309,-0.365198 0.81665,-0.749685 1.06307,-1.148312 0.61666,-0.932282 1.18807,-1.949429 1.71306,-3.048874 0.52261,-1.098163 0.78688,-2.247757 0.78688,-3.448794 0,-0.663527 -0.35594,-1.197175 -1.06426,-1.595802 -0.71307,-0.401202 -1.344,-0.700818 -1.89757,-0.900137 -0.92498,-0.331762 -2.46542,0.05272 -4.62489,1.150884 -2.15828,1.096876 -4.31775,2.179606 -6.47485,3.245622 1.0476,-0.799835 2.44995,-1.566229 4.20705,-2.297907 1.75591,-0.730397 2.76184,-1.599664 3.00826,-2.597526 0.18333,-1.131596 -0.60355,-1.648529 -2.35828,-1.549512 -1.75829,0.09901 -3.19396,0.04886 -4.30228,-0.149168 -0.1857,0 -0.43213,0.100302 -0.74045,0.300903 -0.30833,0.19803 -0.46071,0.19803 -0.46071,-0.0038 -0.18809,-1.393917 0.0274,-3.192896 0.64641,-5.395649 0,-0.266178 0.19762,-0.646807 0.59999,-1.147025 0.39999,-0.498928 0.60117,-0.615948 0.60117,-0.349763 0,0.399913 -0.10832,1.032579 -0.32379,1.897992 -0.21548,0.867985 0.10952,1.366912 0.9726,1.500647 1.2952,0.198028 2.72731,0.564512 4.30108,1.098162 1.57258,0.532364 3.00469,0.664814 4.30228,0.398629 0.80117,-0.131159 1.47853,-0.731676 2.03447,-1.797691 0.55475,-1.067299 1.04879,-2.130739 1.47853,-3.198041 0.24762,-0.66224 0.0607,-1.446641 -0.55355,-2.346772 -0.61665,-0.898847 -1.26545,-1.382347 -1.944,-1.450498 -1.41782,-0.06558 -3.14516,0.533648 -5.17726,1.798976 0,-0.199313 0.16904,-0.565797 0.50832,-1.09816 0.3381,-0.533649 0.41309,-0.898847 0.22976,-1.100733 -0.92498,-0.731679 -2.26781,-0.946425 -4.0249,-0.648095 -1.7583,0.300902 -2.60351,0.183883 -2.54161,-0.351051 0,-0.464212 0.47737,-1.59709 1.4333,-3.394784 0.95593,-1.797694 1.40354,-2.632242 1.33926,-2.49851 0.74164,1.199747 1.72733,2.300479 2.96063,3.29834 1.2345,0.997864 2.49756,1.201035 3.79397,0.599232 0.55474,-0.199315 2.3428,-0.199315 5.36535,0 0.18332,0 0.3226,-0.232748 0.41427,-0.700819 0.0917,-0.465494 0.0452,-0.700816 -0.1381,-0.700816 l -2.03447,-0.09901 c 0.24642,-0.129877 0.63094,-0.31376 1.15593,-0.549081 0.5226,-0.232749 0.81545,-0.515646 0.87854,-0.849981 0.18334,-0.864126 0.37023,-1.962289 0.55356,-3.295771 0.18452,-1.33348 -0.0916,-2.09859 -0.82973,-2.297909 -1.66425,-0.399913 -3.54754,-0.982427 -5.64273,-1.748825 -2.09876,-0.765115 -3.51659,-0.848698 -4.25347,-0.250751 l -2.68446,1.999576 c -0.37023,-0.532363 -0.66308,-1.116162 -0.87855,-1.748825 -0.21785,-0.632665 -0.54046,-1.081445 -0.97022,-1.347626 -1.2333,-0.599229 -3.07135,-0.81655 -5.50581,-0.64938 -2.43328,0.16845 -3.46778,1.049296 -3.09755,2.645101 z m -6.74985,16.786179 0.27381,-0.799833 0.74165,-1.599663 c 0.24642,-0.597944 0.38451,-1.197174 0.41665,-1.797691 0.0274,-0.597944 0.0738,-1.296191 0.13691,-2.094739 0.30832,-1.600948 0.56785,-3.167178 0.78689,-4.698687 0.21547,-1.531509 0.20118,-3.162033 -0.0464,-4.895434 -0.37023,1.733401 -1.18806,3.298344 -2.45233,4.696118 -1.26186,1.399062 -2.23565,2.83156 -2.91183,4.294916 -0.55832,1.0673 -1.45115,2.333915 -2.68208,3.798555 l 0.27737,1.298764 v 0.698246 c 1.66307,0 3.48326,0.369054 5.4594,1.099448 z m -7.58791,-31.473761 c 0.24643,-1.06344 0.61666,-2.594952 1.11069,-4.594532 0.18333,-1.265327 0.52261,-2.796837 1.01783,-4.5958156 -0.37142,0 -0.7107,0 -1.01783,0 -0.30952,0 -0.61666,0 -0.92379,0 0.0595,-0.464209 0.15238,-0.966997 0.275,-1.500648 0.12499,-0.533649 0.24642,-1.06344 0.37141,-1.597091 0.98689,0 1.98924,0 3.0047,0 1.01664,0 2.0809,0 3.19278,0 -0.1869,0.533651 -0.34166,1.063442 -0.46308,1.597091 -0.12262,0.533651 -0.24643,1.036439 -0.36905,1.500648 -0.37141,0 -0.72736,0 -1.06545,0 -0.33927,0 -0.66426,0 -0.97021,0 -0.18452,0.799831 -0.37142,1.5816636 -0.55475,2.3480576 -0.1869,0.765115 -0.37023,1.516082 -0.55355,2.247758 -0.18691,0.799834 -0.37381,1.564947 -0.55714,2.296623 -0.18333,0.732966 -0.33809,1.498079 -0.46308,2.297909 -0.36904,0 -0.72617,0 -1.06426,0 -0.3381,0 -0.66309,0 -0.97022,0 z m -3.79157,17.286394 c -0.80356,3.131173 -1.29759,5.894579 -1.48092,8.294073 -0.55713,-0.266182 -1.04759,-0.13245 -1.47853,0.396059 0.61427,-0.997861 1.13925,-2.294052 1.57019,-3.893715 0.42975,-1.599663 0.89641,-3.196753 1.38926,-4.796417 z m -5.82843,-17.286394 c 0.12141,-0.997861 0.25951,-2.027867 0.41427,-3.095167 0.15476,-1.066014 0.325,-2.098594 0.51189,-3.099028 0.12262,-0.999143 0.26071,-2.0124366 0.41547,-3.0462996 0.15476,-1.032582 0.32499,-2.049731 0.50832,-3.047592 0.37023,0 0.78569,0 1.24878,0 0.4619,0 0.9095,0 1.34283,0 0.0607,0.601802 0.12023,1.185604 0.18332,1.748828 0.0607,0.564512 0.15239,1.148311 0.27976,1.744968 0.12023,1.6009526 0.24404,2.8006996 0.37022,3.6005296 0.0607,-0.601802 0.15239,-1.199747 0.27619,-1.801549 0.12262,-0.597944 0.24642,-1.1958886 0.36904,-1.7989806 0.0607,-0.529791 0.15238,-1.093015 0.27619,-1.694817 0.12261,-0.59923 0.24642,-1.197177 0.3726,-1.798979 0.30714,0 0.64642,0 1.01545,0 0.37143,0 0.74166,0 1.1107,0 -0.24643,0.997861 -0.46428,2.01501 -0.6476,3.047592 -0.18334,1.033863 -0.37024,2.0471566 -0.55475,3.0462996 -0.24643,1.000434 -0.47857,2.033014 -0.69404,3.099028 -0.21547,1.0673 -0.41665,2.097306 -0.60118,3.095167 -0.37141,0 -0.74283,0 -1.1095,0 -0.37141,0 -0.74045,0 -1.11187,0 -0.12262,-0.597944 -0.21428,-1.197175 -0.27499,-1.798977 -0.0631,-0.597944 -0.12381,-1.195889 -0.18571,-1.797694 -0.0631,-0.79983 -0.21547,-1.997004 -0.4619,-3.596667 -0.125,0.601802 -0.23333,1.199747 -0.32618,1.797692 -0.0917,0.601801 -0.16786,1.201031 -0.22857,1.798975 -0.1869,0.601805 -0.3107,1.19975 -0.37023,1.797694 -0.0631,0.601802 -0.15475,1.201033 -0.27856,1.798977 -0.37023,0 -0.69522,0 -0.97021,0 -0.27857,0 -0.57143,0 -0.87974,0 z m -4.90227,-4.294914 c 0.18451,0 0.38452,0 0.59999,0 0.21547,0 0.4488,0 0.69522,0 0,-0.334334 -0.0178,-0.666096 -0.0452,-1.000431 -0.0321,-0.331763 -0.0464,-0.698246 -0.0464,-1.098163 0,-0.399916 0,-0.765115 0,-1.100735 0,-0.331763 0,-0.6969556 0,-1.0981596 -0.24642,0.6018016 -0.46546,1.3334836 -0.64879,2.1988946 -0.12262,0.399917 -0.23214,0.7664 -0.3238,1.098163 -0.0929,0.334335 -0.17024,0.666097 -0.23095,1.000431 z m 9.43548,12.988904 c -2.09875,-1.264043 -3.23801,-0.03344 -3.42015,3.696971 -0.1869,1.999579 -0.43332,4.030019 -0.74164,6.09518 -0.31071,2.06516 -0.83213,3.996586 -1.57259,5.795565 -1.11187,2.597521 -2.11304,5.14361 -3.00945,7.64212 -0.89521,2.498509 -1.74282,4.980302 -2.54161,7.441518 -0.18451,0.601807 -0.24642,1.318051 -0.18451,2.148746 0.0595,0.834552 0.49046,1.185604 1.2952,1.050583 2.77255,-0.266181 5.53439,0.06944 8.27718,0.999145 2.74518,0.933569 5.50345,1.797694 8.27838,2.597523 1.2345,0.336906 2.43803,-0.196743 3.60944,-1.598377 0.36665,-0.398627 0.69165,-1.030006 0.97021,-1.897992 0.275,-0.864125 0.16905,-1.330909 -0.32142,-1.397773 -0.92736,-0.133734 -1.94638,-0.282901 -3.05469,-0.45007 -1.11068,-0.168456 -2.15828,-0.38577 -3.14397,-0.651952 1.04522,-0.129877 2.1559,-0.164595 3.3273,-0.09901 1.1714,0.06944 2.25114,0 3.23802,-0.198028 0.55356,-0.06815 0.86188,-0.650668 0.92498,-1.748828 0.0631,-1.09816 -0.15119,-1.748828 -0.64523,-1.949432 -1.4821,-0.66481 -3.07016,-0.964425 -4.76536,-0.898844 -1.69757,0.06687 -3.34516,0.200601 -4.94631,0.398632 -0.98807,0.136302 -1.91543,0.502785 -2.77612,1.10073 -0.86426,0.601804 -1.75948,1.132883 -2.68328,1.59709 0,-1.265328 0.3988,-2.062585 1.20236,-2.395635 0.24642,0.398631 0.3988,0.664812 0.46189,0.798545 0.80237,-0.864126 1.67973,-1.715392 2.63565,-2.548658 0.95474,-0.830693 1.71068,-1.847842 2.26781,-3.047589 0.24642,-0.533651 0.18332,-1.166316 -0.18333,-1.897993 -0.37142,-0.731679 -0.46309,-1.399062 -0.27976,-1.999579 0.30714,-0.930995 0.86188,-1.730828 1.66544,-2.396923 0.80117,-0.662241 1.38687,-1.498077 1.75591,-2.49851 0.67855,-1.597091 1.65115,-3.095167 2.91422,-4.49423 1.26306,-1.397777 2.02138,-2.731261 2.2678,-3.999161 0.36666,-1.863272 -0.47975,-2.961432 -2.54636,-3.295767 -2.06663,-0.331763 -3.83682,-0.698244 -5.31654,-1.100733 -0.24643,0 -0.58571,0.235321 -1.01546,0.700819 -0.3738,-0.198031 -0.71189,-0.448782 -1.01902,-0.749682 -0.30952,-0.29833 -0.61785,-0.549082 -0.92499,-0.748397 z m -12.6723,-8.69399 c 0.18332,-0.997861 0.4464,-2.027867 0.78688,-3.095167 0.33809,-1.066014 0.63094,-2.098594 0.87736,-3.099028 0.30713,-0.999143 0.60118,-2.0124366 0.87855,-3.0462996 0.27618,-1.032582 0.59998,-2.049731 0.97378,-3.047592 0.42976,0 0.87499,0 1.34045,0 0.46071,0 0.93807,0 1.43211,0 0,0.997861 0.0286,2.01501 0.0917,3.047592 0.0631,1.033863 0.12261,2.0471566 0.18689,3.0462996 0,1.000434 0.0143,2.033014 0.0452,3.099028 0.0298,1.0673 0.075,2.097306 0.13809,3.095167 -0.37023,0 -0.72379,0 -1.06188,0 -0.33928,0 -0.69403,0 -1.06545,0 0,-0.199314 0,-0.415345 0,-0.64681 0,-0.234032 0,-0.451349 0,-0.651952 -0.37023,0 -0.74046,0 -1.11069,0 -0.37023,0 -0.73926,0 -1.10712,0 -0.12737,0.533652 -0.22023,0.967 -0.27856,1.298762 -0.37142,0 -0.72736,0 -1.06545,0 -0.33809,0 -0.69523,0 -1.06188,0 z m -1.01665,32.571921 c 0.61427,-1.729538 1.2464,-3.46165 1.89519,-5.192475 0.6488,-1.730826 1.34045,-3.497659 2.0809,-5.296635 -0.74045,-0.06815 -1.40472,-0.232746 -1.98924,-0.498931 -0.58569,-0.267469 -1.15711,-0.49893 -1.71186,-0.700816 0,2.598812 -0.33809,4.930151 -1.01545,6.994027 0.36785,0.601802 0.56785,1.348912 0.59998,2.247758 0.0286,0.900129 0.0774,1.715395 0.14048,2.447072 z m -3.23802,-32.571921 c 0,-0.79983 0.0464,-1.564943 0.13809,-2.297909 0.0929,-0.731676 0.13809,-1.496789 0.13809,-2.296623 0,-0.731676 0.0286,-1.482643 0.0917,-2.247758 0.0631,-0.766394 0.12261,-1.5482266 0.1869,-2.3480576 -0.37023,0 -0.70951,0 -1.01664,0 -0.30952,0 -0.61665,0 -0.92736,0 0,-0.464209 0.0155,-0.966997 0.0452,-1.500648 0.0334,-0.533649 0.0488,-1.06344 0.0488,-1.597091 0.98569,0 2.00114,0 3.0523,0 1.04879,0 2.0952,0 3.14517,0 -0.0619,0.533651 -0.125,1.063442 -0.18571,1.597091 -0.0631,0.533651 -0.0917,1.036439 -0.0917,1.500648 -0.37022,0 -0.72617,0 -1.06426,0 -0.34046,0 -0.66307,0 -0.9714,0 0,0.799831 -0.0488,1.5816636 -0.14047,2.3480576 -0.0917,0.765115 -0.13691,1.516082 -0.13691,2.247758 -0.1238,1.99958 -0.21547,3.531092 -0.27618,4.594532 -0.3738,0 -0.71189,0 -1.01902,0 -0.31071,0 -0.64879,0 -1.01664,0 z m -6.10581,16.08536 c 1.0476,0.534936 1.63329,0.902705 1.7571,1.102018 0.18333,0.53365 0.18333,1.066014 0,1.599665 -0.18333,0.533649 -0.27499,1.06344 -0.27499,1.597091 -0.12737,-1.399065 -0.62022,-2.831558 -1.48211,-4.298774 z M 106.53207,5.8629694 c 0,0.533651 0,1.048012 0,1.546943 0,0.502785 0,0.983712 0,1.44921 0,0.532363 0,1.050584 0,1.5495116 0,0.500219 0,0.982431 0,1.447928 0,1.265328 0.0917,2.133313 0.27618,2.59881 0.0631,0.465496 0.33928,0.696961 0.83332,0.696961 0.30713,0 0.58451,-0.231465 0.83093,-0.696961 0.18452,-0.799832 0.27976,-1.665245 0.27976,-2.59881 0,-0.465497 0,-0.947709 0,-1.447928 0,-0.4989276 0,-1.0171486 0,-1.5495116 0,-0.465498 0,-0.946425 0,-1.44921 0,-0.498931 0,-1.013292 0,-1.546943 0.36665,0 0.73808,0 1.10711,0 0.37142,0 0.74046,0 1.11188,0 -0.0643,0.73168 -0.0917,1.798979 -0.0917,3.198039 0,0.600519 -0.0178,1.1650306 -0.0464,1.6986786 -0.0321,0.533649 -0.0452,1.063443 -0.0452,1.595806 0,0.533651 -0.0488,1.036436 -0.14166,1.500649 -0.0917,0.465496 -0.13809,0.865412 -0.13809,1.197175 -0.0631,0.533649 -0.24643,1.199746 -0.55356,1.99958 -0.61665,0.933565 -1.38926,1.39906 -2.31305,1.39906 -1.11187,0 -1.87971,-0.465495 -2.31065,-1.39906 -0.3107,-0.465498 -0.49404,-1.130311 -0.55713,-1.99958 -0.18452,-0.663526 -0.27618,-1.562371 -0.27618,-2.697824 0,-0.532363 0,-1.062157 0,-1.595806 0,-0.533648 0,-1.0981596 0,-1.6986786 -0.0631,-0.664811 -0.0952,-1.730823 -0.0952,-3.198039 0.3107,0 0.64998,0 1.02021,0 0.36665,0 0.73688,0 1.10949,0 z M 104.4976,51.922726 c 0,0.465495 0.0607,0.933565 0.18452,1.39906 0.12261,0.46807 0.12261,0.901419 0,1.298763 -0.18809,0.399917 -0.48094,0.667383 -0.87975,0.801118 -0.40118,0.133732 -0.72259,0.300899 -0.96902,0.498928 0.86069,-0.930992 1.41782,-2.264474 1.66425,-3.997869 z m -9.621201,-33.77167 c -0.12381,-0.997861 -0.23214,-2.027867 -0.325,-3.095167 -0.0917,-1.066014 -0.16904,-2.098594 -0.22975,-3.099028 -0.12262,-0.999143 -0.23214,-2.0124366 -0.32381,-3.0462996 -0.0917,-1.032582 -0.16903,-2.049731 -0.22975,-3.047592 0.49404,0 1.00116,0 1.52377,0 0.52261,0 1.06308,0 1.61901,0 0.12381,0.997861 0.37023,2.233611 0.74046,3.695684 0.0607,0.6673856 0.15238,1.3154806 0.27618,1.9481436 0.12263,0.632665 0.24643,1.248613 0.37261,1.847842 0,-0.599229 0.0286,-1.215177 0.0917,-1.847842 0.0607,-0.632663 0.12142,-1.280758 0.18452,-1.9481436 0,-0.597945 0.0286,-1.213891 0.0917,-1.847839 0.0631,-0.631381 0.1238,-1.246043 0.18689,-1.847845 0.49285,0 1.01545,0 1.572591,0 0.55474,0 1.10831,0 1.66543,0 0,1.399062 0.0595,3.429505 0.18333,6.0938916 0,1.000434 0.0143,2.033014 0.0464,3.099028 0.0309,1.0673 0.0774,2.097306 0.14047,3.095167 -0.31071,0 -0.61784,0 -0.92735,0 -0.31071,0 -0.61666,0 -0.92498,0 0,-1.197175 -0.0631,-2.796838 -0.18333,-4.796417 -0.0631,-0.797258 -0.12381,-1.597091 -0.18571,-2.396921 -0.0643,-0.799833 -0.0917,-1.5958076 -0.0917,-2.3969226 -0.0643,0.801115 -0.14166,1.5970896 -0.233331,2.3969226 -0.0917,0.79983 -0.13809,1.599663 -0.13809,2.396921 -0.0631,0.799832 -0.14047,1.599663 -0.23213,2.399496 -0.0917,0.79983 -0.1381,1.597091 -0.1381,2.396921 -0.24642,0 -0.51069,0 -0.78688,0 -0.27856,0 -0.50714,0 -0.69166,0 -0.43332,-1.863273 -0.7726,-3.462936 -1.01902,-4.796417 -0.18332,-1.063442 -0.52141,-2.660535 -1.01545,-4.7938436 0.24643,2.1333086 0.3988,3.7304016 0.4619,4.7938436 0,0.799832 0.0464,1.599663 0.13809,2.399496 0.0917,0.79983 0.16904,1.597091 0.23214,2.396921 -0.37023,0 -0.69404,0 -0.97022,0 -0.27857,0 -0.57142,0 -0.88093,0 z m -10.36047,33.371753 c -0.12262,0.399917 -0.33809,0.849982 -0.64523,1.350197 -0.30951,0.501503 -0.37022,0.981146 -0.1869,1.447925 -0.0631,-0.398626 -0.3238,-0.732961 -0.78688,-0.999145 -0.4607,-0.267467 -0.59999,-0.597945 -0.41547,-0.999146 0,-0.33176 0.33809,-0.631381 1.01665,-0.898847 0.67736,-0.266182 1.01783,-0.232746 1.01783,0.09902 z m -2.49637,-33.371753 c -0.24762,-0.997861 -0.46547,-2.027867 -0.6488,-3.095167 -0.18451,-1.066014 -0.37022,-2.098594 -0.55474,-3.099028 -0.18333,-0.999143 -0.38452,-2.0124366 -0.59999,-3.0462996 -0.21785,-1.032582 -0.41903,-2.049731 -0.60237,-3.047592 0.92379,0 1.88091,0 2.86779,0 0.98808,0 1.97496,0 2.96184,0 0.0607,0.533651 0.13809,1.048012 0.22975,1.546943 0.0929,0.502785 0.19881,0.983712 0.32499,1.44921 -0.68093,0 -1.32972,0 -1.94399,0 -0.61666,0 -1.20236,0 -1.75711,0 0,0.266182 0.0286,0.532363 0.0929,0.798548 0.0595,0.267467 0.12381,0.5027846 0.1869,0.7021006 0.42975,0 0.89284,0 1.38568,0 0.49404,0 1.01665,0 1.57377,0 0.0595,0.666098 0.21428,1.665244 0.46189,2.994868 -0.55712,0 -1.06544,0 -1.52734,0 -0.46308,0 -0.9095,0 -1.34044,0 0.12023,0.669955 0.21547,1.203605 0.27856,1.599663 0.55356,0 1.13926,0 1.75711,0 0.61427,0 1.26306,0 1.94281,0 0.0607,0.667384 0.21547,1.733398 0.46189,3.196754 -0.92736,0 -1.85115,0 -2.77494,0 -0.92498,0 -1.85233,0 -2.77612,0 z m -3.14397,18.783183 c 0.18452,-0.597944 0.72141,-0.765112 1.61663,-0.497643 0.89522,0.266182 1.65114,0.33305 2.2678,0.200601 1.1083,-0.198028 1.75591,-0.696962 1.94043,-1.498076 0.18333,-0.799834 0.30952,-1.599664 0.37261,-2.399496 0.43094,1.931425 1.01664,3.264907 1.7571,3.996586 0.36785,0.465497 0.75237,1.131593 1.15354,1.997009 0.40238,0.867985 0.3869,1.467214 -0.0417,1.798977 -0.92855,0.669956 -2.03924,1.184316 -3.33444,1.549512 -1.29402,0.366483 -2.43328,0.716249 -3.42135,1.048012 -0.86308,0.267467 -1.48092,1.199746 -1.84996,2.799409 -0.37141,1.600951 -0.58689,2.165463 -0.64641,1.697392 -0.43094,-1.598375 -0.66308,-3.361351 -0.69522,-5.292777 -0.0321,-1.93271 0.26071,-3.730401 0.88093,-5.399506 z m -0.18571,-19.881342 c -0.18453,0.533648 -0.3988,0.865411 -0.64642,0.999146 -0.3726,0.266182 -0.80354,0.399914 -1.29758,0.399914 -1.11069,0 -2.09757,-0.533649 -2.95945,-1.599663 -0.49404,-0.599231 -0.8607,-1.29619 -1.10831,-2.09602 -0.49285,-0.933565 -0.83451,-1.86713 -1.01903,-2.799413 -0.30952,-1.064724 -0.49403,-1.9970036 -0.55356,-2.7968366 -0.12619,-0.801117 -0.0631,-1.498076 0.18333,-2.099878 0.37023,-1.063442 1.1714,-1.597091 2.4059,-1.597091 1.04759,0 1.94399,0.399914 2.68446,1.197175 0.7976,0.735537 1.41425,1.801548 1.84758,3.199326 -0.37024,0 -0.75475,0 -1.15593,0 -0.40237,0 -0.78689,0 -1.15712,0 -0.31071,-0.532364 -0.52499,-0.864127 -0.64522,-1.000434 -0.37023,-0.267467 -0.64879,-0.401201 -0.83331,-0.401201 -0.43333,0 -0.67975,0.33562 -0.74046,1.001718 -0.12381,0.399917 -0.0595,1.2318946 0.1869,2.4972216 0.24404,1.19975 0.58213,2.033014 1.01664,2.498511 0.30595,0.666099 0.70832,0.997861 1.20235,0.997861 0.24643,0 0.49404,-0.164596 0.74046,-0.498931 0.12024,-0.129875 0.18333,-0.529792 0.18333,-1.199747 -0.1869,0 -0.34166,0 -0.4619,0 -0.1238,0 -0.24642,0 -0.37022,0 -0.12381,-0.397344 -0.24762,-0.830693 -0.37023,-1.29619 -0.12381,-0.465498 -0.21547,-0.898845 -0.27499,-1.302619 0.49046,0 0.96664,0 1.4321,0 0.4619,0 0.97022,0 1.52615,0 0.30833,1.401635 0.55476,2.566661 0.74047,3.497655 0.30714,1.401635 0.55475,2.567947 0.73808,3.497655 -0.18333,0 -0.33928,0 -0.4619,0 -0.1238,0 -0.24643,0 -0.37023,0 -0.24761,-0.532363 -0.40238,-0.898845 -0.46189,-1.098159 z m 18.31623,19.283398 c 1.1083,-0.129878 2.21899,-0.362624 3.329681,-0.696959 1.10831,-0.33562 2.12733,-0.401201 3.05112,-0.201886 0.61427,0.132447 0.70593,0.933565 0.27619,2.396921 -0.43094,1.467216 -0.46309,2.700398 -0.0917,3.698259 0.0619,0.133732 0.40118,0.434634 1.01783,0.900132 -1.17022,0.932277 -1.75591,1.496789 -1.75591,1.69482 -0.24762,2.20275 -0.61784,4.516089 -1.11188,6.945161 -0.49284,2.431643 -0.6476,4.847852 -0.4607,7.24349 0,0.799832 0.47618,1.302619 1.43211,1.500649 0.95474,0.19803 1.77377,0.19803 2.45113,0 1.0476,-0.266181 2.18685,-0.430775 3.42134,-0.497645 1.2345,-0.06944 2.18924,-0.401202 2.87018,-1.003004 1.1083,-0.92842 1.58686,-2.362203 1.4333,-4.293628 -0.15477,-1.932714 -0.23333,-3.696972 -0.23333,-5.296635 0,-0.398629 -0.18571,-0.716247 -0.55475,-0.94771 -0.36904,-0.232749 -0.6476,-0.514361 -0.83213,-0.849984 0.18453,-0.597944 0.44881,-1.216462 0.78689,-1.847842 0.33928,-0.632663 0.53808,-1.28333 0.59999,-1.950713 0.43094,-3.330489 0.58451,-6.527245 0.46546,-9.590264 0,-0.132449 -0.3107,-0.864129 -0.92736,-2.19761 0.37023,0.266185 0.72617,0.582517 1.06427,0.94771 0.33927,0.366484 0.72498,0.583802 1.1583,0.648096 1.53806,0.201888 3.17135,0.785687 4.89869,1.752688 1.72853,0.966998 3.23803,1.181743 4.53561,0.648093 0.92498,-0.401202 1.43331,-1.500647 1.52496,-3.299628 0.0917,-1.797691 0.14048,-3.262335 0.14048,-4.3965 0,-0.929707 -0.43332,-1.795122 -1.29879,-2.594952 -0.86307,-0.799832 -1.72733,-1.300048 -2.58921,-1.500647 -1.66425,-0.397345 -3.36064,-0.432064 -5.0856,-0.100302 -1.72734,0.335621 -3.42135,0.601803 -5.08678,0.801117 -1.17379,0.200602 -2.36185,0.43335 -3.56182,0.699531 -1.20235,0.267467 -2.26781,0.766399 -3.19159,1.498078 -0.49404,0.399915 -0.68094,0.997859 -0.55714,1.798977 0.12262,0.798548 0.15476,1.496792 0.0941,2.098596 -0.18571,-0.532366 -0.2488,-1.181746 -0.18571,-1.946859 0.0619,-0.766397 -0.15238,-1.184316 -0.64641,-1.25247 -1.60473,-0.06558 -3.23683,0.0027 -4.902261,0.200601 -1.66544,0.199316 -3.30112,0.199316 -4.90345,0 -1.04998,-0.132447 -1.60473,0.09901 -1.66545,0.698247 -0.12261,0.334335 -0.18213,0.900131 -0.18213,1.698677 -1.48092,-1.863273 -2.74756,-2.861136 -3.79158,-2.997439 -1.85234,0 -3.74992,0 -5.69034,0 -1.94281,0 -3.74635,0.201887 -5.41059,0.600515 -1.54401,0.335621 -3.0404,0.682816 -4.4868,1.049299 -1.44996,0.365193 -2.29637,1.015862 -2.5428,1.949429 -0.62022,1.798976 -0.74403,3.414069 -0.3738,4.846567 0.37023,1.432496 0.74047,3.045017 1.11069,4.843995 0.12381,0.867987 0.53927,1.199747 1.24879,1.000431 0.70951,-0.198028 1.15711,-0.201886 1.34401,-0.0027 -0.55712,0.267469 -1.24878,0.799833 -2.08209,1.599663 -0.83094,0.799833 -0.9726,2.034298 -0.41547,3.695684 0.67736,2.201465 0.82974,4.482659 0.45951,6.847434 -0.37022,2.364776 -0.30713,4.645967 0.18571,6.841002 0.49404,2.267046 1.47973,3.533665 2.95946,3.799846 0.61784,0.132447 1.04878,-0.282901 1.29521,-1.248612 0.24642,-0.965716 0.7095,-1.514798 1.38925,-1.6511 0.42975,0 0.75117,0.385774 0.97021,1.149594 0.21547,0.7664 0.57142,1.08273 1.06545,0.948996 1.53806,-0.132447 2.31066,-1.06601 2.31066,-2.795552 0,-1.333483 -0.33928,-2.450928 -1.01664,-3.349777 -0.67736,-0.898845 -0.98689,-1.946856 -0.92379,-3.146603 0,-0.266182 -0.0321,-1.09816 -0.0952,-2.497222 -0.0631,-1.396492 0,-1.931426 0.1869,-1.599663 0.92379,1.998294 1.72496,4.130318 2.40233,6.394794 0.67737,2.267047 2.12733,4.064737 4.3487,5.394359 0.55356,0.334338 1.09403,0.749685 1.61901,1.249899 0.52261,0.502793 1.12498,0.749679 1.80591,0.749679 0.55356,0 0.83213,-0.563222 0.83213,-1.698675 0.92379,0.39992 1.95471,0.232751 3.09755,-0.498927 1.13925,-0.731683 2.08089,-1.630524 2.82136,-2.697827 0.30713,-0.532361 0.12023,-0.914275 -0.55714,-1.149596 -0.67736,-0.232747 -0.95593,-0.515649 -0.82974,-0.849984 0.18452,0 0.53689,0.15174 1.06307,0.448782 0.52142,0.302188 1.00117,0.183886 1.43449,-0.349765 0.36785,-0.397344 0.36785,-0.73168 0,-0.997861 -2.89874,-2.130739 -5.82962,-3.994014 -8.78907,-5.593677 -0.24762,-0.06815 -0.66308,-0.03472 -1.24878,0.09901 -0.5857,0.13245 -0.72618,0.09901 -0.41666,-0.09901 1.66544,-0.865414 3.52849,-1.481361 5.5951,-1.847844 2.06662,-0.366481 3.74635,-1.348912 5.04274,-2.948575 0.80117,-0.999143 1.04879,-2.279906 0.74046,-3.846137 -0.30952,-1.564942 -0.6476,-3.046301 -1.01902,-4.449223 -0.12262,-0.06429 -0.2,-0.147877 -0.22857,-0.246892 -0.0321,-0.100301 -0.0786,-0.217318 -0.13809,-0.351053 z M 67.035389,13.856142 c 0.18334,0 0.38451,0 0.59999,0 0.21547,0 0.44761,0 0.69522,0 -0.24761,-0.464213 -0.55713,-1.165029 -0.92498,-2.098594 -0.18689,-0.399916 -0.35594,-0.765115 -0.5107,-1.100735 -0.15476,-0.331763 -0.325,-0.6969556 -0.50832,-1.0981596 0,0.401204 0.0286,0.7856846 0.0917,1.1508826 0.0631,0.365196 0.12381,0.71625 0.1869,1.048012 0,0.399917 0.0452,0.7664 0.13691,1.098163 0.0928,0.334335 0.17023,0.666097 0.23332,1.000431 z m -1.48091,4.294914 c -0.18452,-0.997861 -0.33928,-2.027867 -0.4619,-3.095167 -0.12381,-1.066014 -0.24761,-2.098594 -0.37142,-3.099028 -0.37023,-2.5306546 -0.61665,-4.5610936 -0.73688,-6.0938916 0.42975,0 0.87498,0 1.33806,0 0.46189,0 0.9095,0 1.34282,0 0.49404,0.997861 0.97022,2.01501 1.43211,3.047592 0.4619,1.033863 0.94164,2.0471566 1.43568,3.0462996 0.49404,1.000434 0.95594,2.033014 1.38568,3.099028 0.43094,1.0673 0.89641,2.097306 1.39045,3.095167 -0.3738,0 -0.72736,0 -1.06545,0 -0.33928,0 -0.69523,0 -1.06188,0 -0.3107,-0.731676 -0.46547,-1.162455 -0.46547,-1.298762 -0.37023,0 -0.74046,0 -1.11069,0 -0.37023,0 -0.74045,0 -1.1083,0 0,0.200603 0.0607,0.635236 0.18689,1.298762 -0.37261,0 -0.74283,0 -1.11426,0 -0.37022,0 -0.70831,0 -1.01544,0 z m -7.58434,0 c -0.37024,-0.997861 -0.75475,-2.027867 -1.15593,-3.095167 -0.40237,-1.066014 -0.78689,-2.098594 -1.15712,-3.099028 -0.74165,-1.928853 -1.54163,-3.9605766 -2.40351,-6.0938916 0.36785,0 0.77022,0 1.19997,0 0.43094,0 0.89641,0 1.38925,0 0.36785,0.601802 0.75237,1.185604 1.15474,1.748828 0.40237,0.564512 0.78569,1.148311 1.15711,1.744968 0.36904,0.603092 0.75355,1.2010366 1.15592,1.7989806 0.40238,0.601802 0.78689,1.199747 1.15712,1.801549 -0.31071,-0.79983 -0.70951,-1.999577 -1.20235,-3.6005296 -0.24761,-0.529791 -0.47975,-1.093015 -0.69522,-1.694817 -0.21428,-0.59923 -0.41547,-1.197177 -0.59998,-1.798979 0.30713,0 0.63212,0 0.97021,0 0.33928,0 0.69522,0 1.06426,0 0.80236,2.198893 1.51068,4.2293346 2.12733,6.0938916 0.30714,1.000434 0.63213,2.033014 0.97021,3.099028 0.33928,1.0673 0.69523,2.097306 1.06545,3.095167 -0.37022,0 -0.74045,0 -1.11069,0 -0.37022,0 -0.74046,0 -1.1083,0 -0.80355,-1.264042 -1.57258,-2.462502 -2.31304,-3.596671 -1.11188,-1.59709 -1.91186,-2.796837 -2.4059,-3.596667 0.24643,0.79983 0.67737,1.999577 1.29402,3.596667 0.37142,1.265329 0.80237,2.465078 1.29521,3.596671 -0.31071,0 -0.61665,0 -0.92379,0 -0.3107,0 -0.61784,0 -0.92497,0 z m -7.2165,0 c -0.74046,-1.863273 -1.63329,-3.928434 -2.6809,-6.194195 -0.43331,-0.999143 -0.8964,-2.0124366 -1.38924,-3.0462996 -0.49404,-1.032582 -0.92379,-2.049731 -1.29164,-3.047592 0.92379,0 1.87734,0 2.86422,0 0.98807,0 2.00471,0 3.05469,0 0.18333,0.533651 0.37023,1.048012 0.55356,1.546943 0.18452,0.502785 0.37023,0.983712 0.55831,1.44921 -0.62022,0 -1.23806,0 -1.85233,0 -0.61784,0 -1.20235,0 -1.7571,0 0.24642,0.668671 0.46308,1.1688856 0.64641,1.5006486 0.42975,0 0.89521,0 1.38925,0 0.49404,0 1.01546,0 1.57377,0 0.49047,1.332196 0.88927,2.331342 1.19879,2.994868 -0.55594,0 -1.06426,0 -1.52735,0 -0.46189,0 -0.9095,0 -1.34044,0 0.0631,0.266181 0.15595,0.532362 0.27856,0.799832 0.1238,0.266182 0.24643,0.533649 0.37023,0.799831 0.55475,0 1.13926,0 1.75591,0 0.61785,0 1.23569,0 1.85234,0 0.49403,1.199746 0.92497,2.267046 1.29521,3.196754 -0.92498,0 -1.85234,0 -2.77613,0 -0.92378,0 -1.85114,0 -2.77612,0 z m -8.13791,26.480599 c 0.92498,-1.333482 1.38688,-3.532377 1.38688,-6.595396 0,-1.333481 -0.49404,-2.134599 -1.47854,-2.40078 -0.67974,-0.129875 -1.62139,-0.09645 -2.82374,0.102874 -1.20354,0.198025 -1.80353,0.632662 -1.80353,1.298761 0,2.332627 0.63213,4.87743 1.89758,7.643404 1.26306,2.765979 1.98924,5.444514 2.17256,8.043323 0,0.266182 0.22976,0.417919 0.69522,0.450068 0.4619,0.03215 0.72261,0.182597 0.78689,0.448779 0,0.266182 -0.17262,0.483501 -0.5119,0.650665 -0.33808,0.168456 -0.47617,0.347196 -0.41308,0.545224 0.36785,3.066879 1.04521,6.065602 2.0321,8.996181 0.98807,2.929285 3.17492,4.895429 6.5677,5.894584 1.66543,0.53235 3.35944,0.38319 5.08678,-0.45007 1.72853,-0.830699 3.20707,-1.814411 4.44037,-2.948584 0.18452,-0.198024 0.24761,-0.496352 0.1869,-0.896267 -0.0631,-0.39992 0.0309,-0.700823 0.27857,-0.901421 0.12023,-0.131165 0.29047,-0.04759 0.50832,0.250748 0.21428,0.299615 0.41547,0.349771 0.59998,0.14788 3.39278,-3.06302 5.21297,-7.523815 5.45939,-13.388819 0,-0.532363 -0.0488,-1.081444 -0.14047,-1.648528 -0.0928,-0.565797 -0.13809,-1.148311 -0.13809,-1.750116 0,-0.596657 -0.5107,-0.696956 -1.52734,-0.297042 -1.01902,0.401202 -2.08448,0.331763 -3.19159,-0.200601 1.35473,-0.533648 2.43446,-0.732964 3.23802,-0.599229 0.79997,0.133732 1.32615,-0.266182 1.57258,-1.199747 0.55474,-2.06516 0.59998,-4.194614 0.13809,-6.393512 -0.46189,-2.19632 -0.84641,-4.36178 -1.15354,-6.496381 -0.24762,-1.063439 -0.74047,-1.760401 -1.48093,-2.094733 -1.05116,-0.401204 -1.88328,-0.26747 -2.49874,0.399916 -0.55594,0.600514 -0.86308,1.283331 -0.92617,2.04844 -0.0631,0.7664 -0.46309,1.645956 -1.19997,2.645102 -0.12738,-1.066012 -0.004,-1.847842 0.36666,-2.346772 0.37022,-0.498928 0.55713,-1.116163 0.55713,-1.849127 0,-0.46421 -0.37023,-0.699534 -1.11069,-0.699534 -0.55714,0 -1.17378,-0.03086 -1.85234,-0.09901 -0.67617,-0.06558 -1.17021,0.132446 -1.47734,0.597944 -0.43095,0.79983 -0.5857,1.702534 -0.46189,2.700395 0.1238,0.997862 0.24641,1.932711 0.37022,2.796841 0.0595,1.931425 0.30714,3.829418 0.73808,5.696548 0.42975,1.865844 0.64879,3.729119 0.64879,5.593679 -0.0643,2.063873 -0.29285,4.1136 -0.69522,6.145328 -0.40118,2.030442 -0.84641,4.012017 -1.34044,5.944731 -0.24762,0.798542 -0.61428,1.831123 -1.10831,3.095168 -0.49404,1.266613 -0.92736,1.600951 -1.29402,1.000432 -0.49403,-0.801121 -0.29642,-1.750112 0.59999,-2.846988 0.89283,-1.098163 1.06188,-2.049734 0.50832,-2.849563 -0.74165,-0.999147 -1.38687,-1.979002 -1.94162,-2.946003 -0.55594,-0.964427 -0.83212,-2.047157 -0.83212,-3.249474 0,-1.127738 0.0143,-2.310769 0.0464,-3.543949 0.0286,-1.233182 -0.14047,-2.381493 -0.50832,-3.447507 -0.1869,-0.399917 -0.69522,-0.434635 -1.52735,-0.09901 -0.83212,0.334332 -1.15711,0.299617 -0.97379,-0.102872 0.18453,-0.529794 0.7238,-1.030009 1.62021,-1.498079 0.89521,-0.46421 1.34282,-1.432496 1.34282,-2.898424 0,-0.997861 0.0143,-2.062588 0.0464,-3.194183 0.0286,-1.131593 -0.14048,-2.197608 -0.50832,-3.199327 -0.49404,-0.930992 -1.44997,-1.162455 -2.86779,-0.698246 -2.03805,0.667383 -3.33207,1.699965 -3.88681,3.097743 -0.37024,0.865411 -0.43094,1.746255 -0.18333,2.645101 0.24642,0.898848 0.24642,1.815694 0,2.750547 -0.18691,0.533648 -0.29524,0.948995 -0.325,1.24604 -0.0309,0.3009 -0.60237,0.617232 -1.71067,0.952853 z m 0.92498,-26.480599 c -0.55713,-0.997861 -1.07973,-2.027867 -1.57377,-3.095167 -0.49285,-1.066014 -0.98688,-2.098594 -1.47734,-3.099028 -0.55713,-0.999143 -1.07974,-2.0124366 -1.57377,-3.0462996 -0.49404,-1.032582 -0.98689,-2.049731 -1.48092,-3.047592 0.92378,0 1.89757,0 2.91421,0 1.01546,0 2.02019,0 3.00707,0 0.18452,0.533651 0.3988,1.048012 0.64642,1.546943 0.24642,0.502785 0.49404,0.983712 0.74046,1.44921 -0.67975,0 -1.32855,0 -1.94281,0 -0.61784,0 -1.20355,0 -1.75711,0 0.12024,0.266182 0.22976,0.532363 0.32143,0.798548 0.0917,0.267467 0.23213,0.5027846 0.41904,0.7021006 0.43094,0 0.89283,0 1.38686,0 0.49404,0 1.01665,0 1.57259,0 0.18332,0.532366 0.39879,1.048012 0.64641,1.546942 0.24642,0.5015 0.49403,0.982431 0.74046,1.447926 -0.55713,0 -1.06545,0 -1.52734,0 -0.4619,0 -0.90951,0 -1.34045,0 l 0.74046,1.599663 c 0.55356,0 1.13925,0 1.7571,0 0.61665,0 1.26545,0 1.94281,0 0.30713,0.667384 0.77022,1.733398 1.38568,3.196754 -0.9226,0 -1.85115,0 -2.77493,0 -0.92379,0 -1.84877,0 -2.77256,0 z m -6.75221,31.473761 c -1.60354,0.401201 -2.87018,0.599229 -3.79396,0.599229 0.92378,1.599663 1.87971,3.181324 2.86779,4.747554 0.98688,1.564942 1.94281,3.114457 2.8666,4.644678 -0.30952,-1.597087 -0.60237,-3.262331 -0.87856,-4.995729 -0.27737,-1.728252 -0.62975,-3.396069 -1.06187,-4.995732 z m 1.38686,-31.473761 c -0.55593,-1.06344 -1.38925,-2.594952 -2.49755,-4.594532 -0.43214,-0.731676 -0.86665,-1.482643 -1.29759,-2.247758 -0.42975,-0.766394 -0.83213,-1.5482266 -1.19878,-2.3480576 -0.37023,0 -0.70951,0 -1.01903,0 -0.3107,0 -0.61784,0 -0.92498,0 -0.30951,-0.464209 -0.60236,-0.966997 -0.87736,-1.500648 -0.27856,-0.533649 -0.57141,-1.06344 -0.87854,-1.597091 1.04759,0 2.0809,0 3.09635,0 1.01664,0 2.04996,0 3.09993,0 0.55474,0.997861 1.07973,2.03044 1.57377,3.097739 -0.3738,0 -0.71189,0 -1.01903,0 -0.3107,0 -0.61664,0 -0.92497,0 0.36785,0.799831 0.75236,1.5816636 1.15354,2.3480576 0.40237,0.765115 0.81903,1.516082 1.25235,2.247758 0.36666,0.799834 0.75236,1.564947 1.15355,2.296623 0.40237,0.732966 0.81903,1.498079 1.25115,2.297909 -0.3726,0 -0.71069,0 -1.01783,0 -0.3107,0 -0.61784,0 -0.92498,0 z m -1.38686,59.650466 c -1.04998,-1.93143 -2.31305,-4.32964 -3.79396,-7.19334 -0.61784,-1.0673 -1.44997,-1.997007 -2.49756,-2.796842 -1.0476,-0.799829 -1.84877,-1.764258 -2.40232,-2.899712 -0.18691,-0.266181 0.0286,-0.381913 0.64521,-0.349765 0.61428,0.03342 1.04879,0.151735 1.29521,0.349765 2.03567,1.467217 3.39278,2.830274 4.07014,4.096884 0.67737,1.40164 1.17141,2.86371 1.48092,4.39522 0.30713,1.53279 0.70951,3.00001 1.20236,4.39779 z M 126.51255,20.848881 h 54.38918 L 190.89078,3.4634764 H 25.597089 l 9.71049,17.3854046 h 69.744771 c 1.54043,-0.597944 3.63681,-1.096876 6.28794,-1.498075 2.46661,-0.532366 5.0725,-0.830696 7.81767,-0.898849 2.7428,-0.06558 5.19512,0.735538 7.35459,2.396924 z M 19.767471,46.528359 c 0.923786,0.933568 1.865431,1.481364 2.821359,1.649814 0.955933,0.167171 1.527344,0.547797 1.710673,1.147029 0.123809,0.601802 -0.492846,0.684099 -1.848764,0.250749 -1.357106,-0.433349 -1.85115,-0.549079 -1.480921,-0.349765 0.494038,0.334335 0.338087,-0.08358 -0.46189,-1.249898 -0.803554,-1.166311 -1.051167,-1.645956 -0.740457,-1.447929 z m 15.356778,-8.693988 c -0.92736,-0.999146 -1.71425,-1.913423 -2.35947,-2.747974 -0.64879,-0.830693 -1.55949,-1.048012 -2.7297,-0.646808 -0.92378,0.398632 -2.15828,1.149596 -3.699912,2.247759 -1.541627,1.096872 -2.928501,1.881275 -4.161803,2.346772 -1.111873,0.468067 -1.820194,1.386202 -2.128518,2.750547 -0.309517,1.364341 -0.647604,2.578233 -1.015453,3.642963 -1.173783,-0.464212 -2.038044,-0.496361 -2.591607,-0.100302 -1.728526,1.467216 -3.577296,3.217329 -5.548677,5.247772 -1.974952,2.034297 -3.978474,2.715823 -6.014138,2.045872 -0.616655,-0.199318 -1.07855,0.136302 -1.385682,1.001716 -0.310709,0.866699 -0.186906,1.8337 0.370229,2.895851 0.429748,1.066015 1.523766,1.801552 3.280869,2.198898 1.755916,0.398628 3.191593,0.49764 4.302279,0.299616 2.52613,-0.398633 4.177284,-1.116167 4.948691,-2.148749 0.770219,-1.030005 2.113049,-2.110163 4.02491,-3.245616 0.614269,-0.399913 0.799977,0.04886 0.553551,1.348912 -0.24642,1.298763 -0.185708,2.315912 0.186906,3.047591 3.576104,7.327073 6.102235,14.885611 7.583145,22.678191 0.12381,0.86798 0.81903,1.56493 2.08091,2.09858 1.26307,0.53366 2.11304,0.4012 2.54399,-0.39991 0.80116,-1.46336 1.78805,-2.81227 2.95945,-4.04674 1.1714,-1.2306 2.59161,-1.54694 4.25704,-0.94771 0.9845,0.39992 1.40115,-0.26618 1.24521,-1.99701 -0.15476,-1.72954 -0.50713,-3.13117 -1.06188,-4.19846 -2.03566,-3.063029 -4.08443,-6.191631 -6.15105,-9.392246 -2.06661,-3.195466 -4.05347,-6.492521 -5.96533,-9.89116 -0.43332,-0.663528 -0.6476,-1.546942 -0.6476,-2.647675 0,-1.096878 0.30594,-1.914711 0.92616,-2.448361 1.10831,-0.999144 2.47971,-1.464641 4.11658,-1.395203 1.6321,0.06687 3.03683,-0.367768 4.20823,-1.303905 0.42975,-0.330478 0.50475,-0.894987 0.22976,-1.69482 -0.27857,-0.79983 -0.60356,-1.399065 -0.97022,-1.798979 -0.37142,-0.334335 -0.91069,-0.349765 -1.61901,-0.05272 -0.71189,0.300899 -1.0964,0.217316 -1.15712,-0.246895 -0.18332,-0.398628 0.0631,-0.813978 0.74046,-1.247327 0.67737,-0.434634 0.89522,-0.849981 0.6488,-1.25247 z m 10.82236,34.571501 c 0.61427,2.79684 0.42975,5.22848 -0.55475,7.29236 -1.48092,2.00215 -3.36421,2.80069 -5.64272,2.39949 l -0.46189,-0.1003 -0.18691,0.1003 -0.27618,0.29833 c -0.98807,1.33348 -1.79162,2.49979 -2.40589,3.49765 -0.58214,0.94386 -1.71663,1.5598 -3.39993,1.85042 h -1.35949 c -1.99638,-0.18388 -3.67967,-0.89885 -5.045115,-2.15131 -1.111878,-1.06345 -1.820194,-2.19504 -2.127325,-3.39607 -0.309517,-1.1959 -0.585705,-2.52809 -0.832131,-3.99531 -1.297586,-5.79556 -3.209447,-11.323661 -5.735577,-16.584282 -4.87369,2.863703 -9.86881,2.997437 -14.984167,0.398627 -2.65231895,-1.797693 -3.978475,-4.633109 -3.978475,-8.494676 0.36784905,-1.730824 1.26306505,-3.396069 2.680888,-4.995732 1.602345,-0.663528 3.114215,-0.865411 4.53323,-0.599232 0.430941,0 1.094019,-0.396056 1.989235,-1.197174 0.895215,-0.799833 1.526152,-1.396492 1.89638,-1.800266 0.801175,-0.797258 1.679724,-1.6781 2.635657,-2.6451 0.955928,-0.966997 1.989241,-1.649814 3.099927,-2.04973 0.860688,-2.663105 2.40232,-4.561098 4.624891,-5.696549 0.986877,-0.396058 1.957092,-0.914279 2.91302,-1.546942 0.955934,-0.63138 1.926149,-1.249897 2.914219,-1.850415 3.822533,-2.52937 7.184353,-2.263188 10.083093,0.799834 0.92498,-0.533652 2.14161,-0.89885 3.6511,-1.096875 1.51068,-0.199316 2.82256,-0.135023 3.93324,0.198025 1.29402,-0.865411 2.72613,-1.481359 4.2999,-1.847839 1.57258,-0.366484 3.09755,-0.249467 4.57846,0.349765 0.74046,-1.599663 1.75591,-2.564091 3.0535,-2.898425 1.29521,-0.331763 2.68089,-0.500215 4.16181,-0.500215 0.67855,0 1.14045,0.06815 1.38687,0.201885 0.55475,-0.267467 1.46425,-0.399916 2.72731,-0.399916 1.26307,0 2.17377,0.167168 2.7297,0.498931 0.67737,-0.731679 1.44997,-1.364343 2.31423,-1.897995 H 33.734989 L 19.861511,-0.23221062 H 196.62516 L 182.47431,24.547136 h -40.60855 c 2.71183,1.399064 4.1618,3.297055 4.34751,5.693979 0.30833,-1.464644 1.20116,-2.596236 2.68208,-3.396069 1.48092,-0.79983 2.86779,-1.298763 4.16181,-1.500648 3.51539,-0.331764 6.53674,0.300901 9.06645,1.901849 1.48091,-0.801116 3.4523,-0.801116 5.9201,0 2.4666,0.798548 4.43918,1.397777 5.92009,1.796409 1.54163,0.534933 2.80351,1.39906 3.79158,2.596236 0.86188,-0.597947 2.18685,-1.197176 3.9749,-1.797694 1.78805,-0.597941 3.1785,-0.531075 4.16538,0.200601 l 0.46308,-0.200601 1.75592,-0.298327 c 3.08325,0.399917 6.39865,1.08273 9.9438,2.04973 3.54516,0.968284 5.93558,3.315056 7.17007,7.041603 0.36785,2.197607 0.0286,4.163754 -1.01902,5.894579 -1.05116,1.733395 -2.22138,3.29834 -3.51301,4.697403 0.30713,0.334335 0.76783,0.815265 1.38687,1.447927 0.61427,0.632666 0.98331,1.184317 1.11069,1.648527 l 0.55237,0.401201 c 2.52732,2.998725 3.97609,6.411513 4.34751,10.242219 0.0381,0.398628 0.0643,0.795974 0.081,1.192033 v 1.638241 c -0.11428,2.807124 -0.81784,5.510098 -2.11304,8.106328 -3.08326,5.53325 -7.77244,8.72871 -14.06038,9.59412 -1.97495,0.33562 -3.60826,-0.0334 -4.90226,-1.10073 -1.85235,1.19975 -3.94991,1.36692 -6.29272,0.49893 -2.34161,-0.86413 -4.34513,-1.89671 -6.01056,-3.09774 -0.74047,-0.46421 -1.89758,-1.4132 -3.47016,-2.84571 -1.57258,-1.43249 -2.29638,-2.5448 -2.17257,-3.34463 l -0.18333,0.19674 h -2.03567 c -0.86426,-0.33176 -1.62019,-0.7471 -2.26898,-1.24603 -0.64879,-0.49894 -1.34045,-0.949 -2.07972,-1.35148 -1.91186,-0.99915 -3.97967,-1.71026 -6.19748,-2.14489 -2.22256,-0.43464 -4.40941,-0.785692 -6.56531,-1.051872 -1.11426,0 -2.10114,-0.03088 -2.96184,-0.09902 -0.86426,-0.06558 -1.78924,-0.396059 -2.77374,-0.997859 h -0.46071 l -0.18808,-0.102867 c -2.34161,1.935283 -4.6868,2.666958 -7.0296,2.198888 -2.03447,-0.599224 -4.0249,-1.247323 -5.96534,-1.948141 -1.9428,-0.696961 -3.93085,-1.215176 -5.96652,-1.549514 -0.92498,-0.06558 -1.83447,-0.08101 -2.72969,-0.05013 -0.89522,0.03342 -1.77496,0.01931 -2.63566,-0.04889 l -2.21899,-1.20103 -1.29402,-1.897993 -0.37141,-1.298761 c -0.98689,1.467211 -2.32972,2.331336 -4.02372,2.59881 -1.69639,0.26618 -3.28445,0.567083 -4.76536,0.900127 -2.83566,0.532368 -5.3963,0.003 -7.674811,-1.598376 -1.23451,1.665246 -2.9309,2.796839 -5.08918,3.39607 l -0.0928,0.09902 -1.75592,1.500646 -2.31423,0.399914 -1.47735,-0.300896 c -0.80474,-0.267468 -1.5452,-0.632667 -2.22257,-1.096877 -0.67736,-0.465497 -1.35472,-0.968285 -2.03209,-1.500652 -1.72853,1.999579 -3.88681,2.731262 -6.47603,2.198895 -1.60473,1.264039 -3.25469,1.481358 -4.9487,0.649381 -1.69639,-0.83069 -3.00826,-2.015012 -3.93204,-3.546519 -0.37024,0.600513 -1.0476,1.481358 -2.03567,2.647672 -0.98689,1.166315 -1.7571,1.847844 -2.31066,2.045874 -0.3738,0.6018 -1.08212,1.2499 -2.12971,1.952 -1.0476,0.69952 -1.88091,1.21389 -2.49518,1.54565 -4.8106,2.59881 -9.31406,2.4355 -13.50444,-0.49892 v 0 0" />
      </g>
    </g>
  </g>
</svg>
