<?xml version="1.0" encoding="UTF-8" standalone="no"?>
<svg
   xmlns:dc="http://purl.org/dc/elements/1.1/"
   xmlns:cc="http://creativecommons.org/ns#"
   xmlns:rdf="http://www.w3.org/1999/02/22-rdf-syntax-ns#"
   xmlns:svg="http://www.w3.org/2000/svg"
   xmlns="http://www.w3.org/2000/svg"
   id="svg186"
   version="1.1"
   viewBox="0 0 87.139893 33.544632"
   height="33.544632mm"
   width="87.139893mm">
  <defs
     id="defs180" />
  <metadata
     id="metadata183">
    <rdf:RDF>
      <cc:Work
         rdf:about="">
        <dc:format>image/svg+xml</dc:format>
        <dc:type
           rdf:resource="http://purl.org/dc/dcmitype/StillImage" />
        <dc:title></dc:title>
      </cc:Work>
    </rdf:RDF>
  </metadata>
  <g
     transform="translate(-0.20320004,-0.16874771)"
     id="layer1">
    <g
       id="text190"
       style="font-style:normal;font-variant:normal;font-weight:normal;font-stretch:normal;font-size:25.39999962px;line-height:1.25;font-family:'Changa One';-inkscape-font-specification:'Changa One';letter-spacing:0px;word-spacing:0px;fill:#000000;fill-opacity:1;stroke:none;stroke-width:0.26458332"
       aria-label="NES" />
    <g
       id="text194"
       style="font-style:normal;font-variant:normal;font-weight:normal;font-stretch:normal;font-size:10.58333302px;line-height:1.25;font-family:'Changa One';-inkscape-font-specification:'Changa One';letter-spacing:0px;word-spacing:0px;fill:#000000;fill-opacity:1;stroke:none;stroke-width:0.26458332"
       aria-label="HACKS">
      <path
         d="m 72.738092,33.052978 1.4224,-4.191 q 2.1336,0.5842 3.9116,0.5842 1.778,0 2.8702,-0.1524 l 0.2032,-1.27 -2.1082,-0.2032 q -2.413,-0.2286 -3.429,-1.0922 -0.9906,-0.8636 -0.9906,-2.438399 0,-0.6858 0.1524,-1.524 0.5842,-3.2512 2.1082,-4.4704 1.5494,-1.2192 4.7752,-1.2192 3.2258,0 5.6896,0.635 l -1.3208,4.064 q -2.2098,-0.381 -3.556,-0.381 -1.3462,0 -2.286,0.127 l -0.2032,1.2446 1.7018,0.1778 q 2.5908,0.2794 3.683,1.2446 1.0922,0.9398 1.0922,2.539999 0,1.6256 -0.7112,3.3528 -0.3556,0.889 -0.7874,1.4986 -0.4064,0.5842 -1.0668,1.016 -0.635,0.4064 -1.1684,0.635 -0.5334,0.2032 -1.3462,0.3048 -1.1938,0.1778 -2.921,0.1778 -3.1496,0 -5.715,-0.6604 z m -7.930355,-6.1468 0.0254,-0.4826 h -0.2032 l -1.1938,6.9088 h -4.826 l 2.794,-15.874999 h 4.826 l -1.143,6.477 h 0.2032 q 0.2032,-0.8128 0.4572,-1.2192 l 3.200399,-5.2578 h 5.207 l -4.9784,7.7978 2.3114,8.077199 h -5.206999 l -1.397,-5.6896 q -0.0762,-0.254 -0.0762,-0.7366 z m -7.975601,1.8796 -0.4064,4.2672 q -1.6256,0.6604 -4.1148,0.6604 -3.2004,0 -4.5974,-1.2446 -1.3716,-1.2446 -1.3716,-3.8354 0,-1.0922 0.3556,-3.225799 0.762,-4.3688 2.6162,-6.35 1.8796,-1.9812 5.9182,-1.9812 0.9398,0 2.1336,0.2032 1.2192,0.1778 1.778,0.4572 l -1.4224,3.8862 q -1.4986,-0.3556 -2.8194,-0.3556 -1.2954,0 -1.8542,0.254 -0.5588,0.254 -0.6858,1.016 l -1.1684,6.654799 q 0.9144,0.2032 1.8796,0.2032 2.0574,0 3.7592,-0.6096 z m -22.793325,4.5466 h -5.08 l 6.6802,-15.874999 h 7.4676 l 1.1176,15.874999 h -5.1054 l -0.1016,-2.5146 h -3.9878 z m 4.3434,-10.998199 -1.778,4.444999 h 2.032 v -4.444999 z m -16.011922,10.998199 0.9652,-5.6134 h -3.6322 l -0.9652,5.6134 h -4.826 l 2.794,-15.874999 h 4.826 l -0.9906,5.6134 h 3.6322 l 0.9906,-5.6134 h 4.826 l -2.794,15.874999 z m 7.438993,-17.187031 1.4224,-4.190999 q 2.1336,0.5842 3.9116,0.5842 1.778,0 2.8702,-0.1524 l 0.2032,-1.27 -2.1082,-0.2032 q -2.413,-0.2286 -3.429,-1.0922004 -0.9906,-0.8636 -0.9906,-2.4384 0,-0.6858 0.1524,-1.524 0.5842,-3.2511999 2.1082,-4.4703999 1.5494,-1.21919999 4.7752,-1.21919999 3.2258,0 5.6896,0.63499999 l -1.3208,4.0639999 q -2.2098,-0.381 -3.556,-0.381 -1.3462,0 -2.286,0.127 l -0.2032,1.2446 1.7018,0.1778 q 2.5908,0.2794 3.683,1.2446 1.0922,0.9398 1.0922,2.54 0,1.6256004 -0.7112,3.3528004 -0.3556,0.889 -0.7874,1.498599 -0.4064,0.5842 -1.0668,1.016 -0.635,0.4064 -1.1684,0.635 -0.5334,0.2032 -1.3462,0.3048 -1.1938,0.1778 -2.921,0.1778 -3.1496,0 -5.715,-0.6604 z m -2.293541,-5.714999 h -4.826 l -0.3302,1.9304 h 5.918199 l -0.711199,4.063999 h -10.7442 l 2.794,-15.87499929 H 30.23354 l -1.3208,4.06399989 h -5.206999 l -0.3556,2.1336 h 4.825999 z m -18.4479411,5.994399 -2.5908,-5.638799 Q 6.3754,10.608148 6.3754,10.303348 q 0,-0.3302004 0.0508,-0.7366004 H 6.223 L 5.0292,16.424747 H 0.20320004 L 2.9972,0.54974771 H 7.5437999 L 10.1346,6.1885476 q 0.0762,0.1778 0.0762,0.508 0,0.3048 -0.0508,0.7112 h 0.2032 l 1.2192,-6.85799989 h 4.826 L 13.6144,16.424747 Z"
         style="font-size:25.39999962px;fill:#ffffff;stroke-width:0.26458332"
         id="path211" />
    </g>
  </g>
</svg>
